<?xml version="1.0" encoding="UTF-8"?>
<!DOCTYPE svg PUBLIC "-//W3C//DTD SVG 1.1//EN" "http://www.w3.org/Graphics/SVG/1.1/DTD/svg11.dtd">
<!-- Created with Inkscape (http://www.inkscape.org/) -->
<svg xmlns="http://www.w3.org/2000/svg" xml:space="preserve" width="7.17488in" height="3.52516in" version="1.1" style="shape-rendering:geometricPrecision; text-rendering:geometricPrecision; image-rendering:optimizeQuality; fill-rule:evenodd; clip-rule:evenodd"
viewBox="0 0 7175 3525"
 xmlns:xlink="http://www.w3.org/1999/xlink">
 <defs>
  <style type="text/css">
   <![CDATA[
    .fil0 {fill:#FEFEFE}
    .fil3 {fill:#373435}
    .fil4 {fill:#1E87F7}
    .fil5 {fill:#F7941E}
    .fil1 {fill:#FEFEFE;fill-rule:nonzero}
    .fil2 {fill:#373435;fill-rule:nonzero}
   ]]>
  </style>
 </defs>
 <g id="Layer_x0020_1">
  <metadata id="CorelCorpID_0Corel-Layer"/>
  <g id="_717241536">
   <g>
    <path class="fil0" d="M2094 1700l220 0c57,0 100,42 100,100l0 217 227 0c6,0 12,0 17,2 6,-2 12,-2 18,-2l271 0c58,0 100,42 100,100l0 207c57,-5 126,-6 183,-7 3,-17 10,-34 24,-49 15,-17 32,-26 50,-30 2,-20 9,-39 26,-57 12,-13 25,-21 39,-26 6,-20 19,-36 36,-47 -13,-7 -26,-14 -39,-21 -11,-5 -42,-21 -54,-22 -43,0 -79,-29 -88,-71 -9,-42 3,-78 11,-115l31 -166c5,-29 10,-59 16,-87 8,-34 33,-59 67,-67 29,-7 59,-10 89,-13 0,0 1,0 2,0l2 -32c0,-3 0,-5 1,-9 1,-11 1,-26 0,-38 0,-21 0,-41 2,-62l5 -98c0,-17 0,-34 0,-51 0,-18 3,-35 3,-52 0,-1 0,-2 0,-3l19 -532c0,-3 0,-7 1,-10 1,-11 1,-25 0,-36 0,-23 0,-46 3,-69 13,-83 5,-129 52,-209 14,-24 27,-47 49,-64 2,-1 4,-2 5,-3 2,-95 30,-208 111,-263 27,-18 60,-20 89,-6 25,12 42,33 48,59 8,10 15,19 22,33 26,55 34,111 37,170 8,5 16,11 22,18 14,14 31,38 41,56 9,16 17,34 24,52 52,-84 135,-155 237,-155 42,0 78,28 87,69 9,42 -11,83 -49,101l-20 9c-1,1 -2,1 -3,2 -21,9 -31,17 -45,35 -6,8 -12,16 -17,24 -40,66 -49,208 -1,272 23,31 56,47 92,60 34,12 70,18 107,18 44,0 88,-7 130,-16 141,-31 298,-96 442,-58 84,22 147,74 195,144 19,27 34,47 44,79 17,57 44,118 66,173 24,58 49,117 71,177 3,10 6,18 11,28 2,3 3,6 4,9l196 496c5,14 10,28 16,41 5,-13 10,-26 16,-40l132 -334c0,-1 1,-2 1,-3 12,-26 20,-53 31,-79l66 -166c22,-56 43,-112 66,-167l66 -167c2,-6 5,-12 9,-18l25 -35c0,-1 0,-1 1,-2 52,-71 119,-121 205,-140 174,-38 343,62 513,77 47,4 110,0 154,-17 11,-5 23,-10 35,-16 43,-20 66,-54 78,-99 4,-17 12,-58 11,-75 -5,-61 -21,-144 -71,-184 -13,-12 -13,-12 -30,-18 0,-1 -1,-1 -1,-1l-15 -7c-3,0 -5,-2 -7,-3 -4,-1 -8,-4 -11,-6 -33,-23 -47,-62 -35,-100 12,-39 46,-63 86,-63 69,0 131,34 180,81 128,125 158,342 107,509 -17,56 -45,104 -85,147 -112,122 -249,160 -404,168l0 1647c0,31 -15,58 -39,74 22,29 34,63 37,101 1,8 1,16 -1,24 4,10 6,20 6,31l0 151c0,50 -40,90 -90,90l-20 0c-11,0 -20,-2 -30,-5 -23,9 -48,12 -74,12 -43,0 -84,-10 -119,-33 -16,16 -38,26 -62,26l-35 0c-30,0 -56,-14 -73,-39l-20 -28c-10,38 -45,67 -86,67l-25 0c-6,0 -12,-1 -17,-2 -6,1 -11,2 -17,2l-26 0c-38,0 -69,-22 -83,-56l-14 -34 -21 0 -14 34c-14,34 -46,56 -83,56l-27 0c-2,0 -4,0 -6,0 -2,0 -5,0 -7,0l-188 0c-6,0 -12,-1 -17,-2 -6,1 -11,2 -17,2l-26 0c-38,0 -69,-22 -83,-56l-14 -34 -21 0 -14 34c-14,34 -46,56 -83,56l-27 0c-6,0 -11,-1 -17,-2 -5,1 -11,2 -16,2l-26 0c-20,0 -39,-6 -54,-18 -15,11 -34,18 -55,18l-30 0c-20,0 -40,-7 -55,-19 -15,13 -34,19 -55,19l-25 0c-31,0 -59,-16 -75,-41 -16,26 -44,41 -75,41l-34 0c-30,0 -57,-14 -74,-40l-14 -20 -14 21c-17,25 -44,39 -74,39l-34 0c-17,0 -34,-5 -48,-13 -30,14 -64,20 -98,20 -42,0 -82,-8 -116,-29 -16,13 -36,22 -59,22l-34 0c-31,0 -57,-14 -74,-39l-19 -28c-10,38 -46,67 -87,67l-25 0c-11,0 -22,-2 -32,-6 -9,4 -20,6 -31,6l-26 0c-7,0 -14,-1 -21,-3 -7,2 -14,3 -21,3l-189 0c-13,0 -25,-3 -36,-8 -16,28 -45,45 -78,45l-20 0c-29,0 -54,-12 -71,-36 -1,-1 -2,-1 -2,-2 -22,6 -44,8 -67,8 -41,0 -82,-8 -116,-29 -15,13 -36,22 -59,22l-34 0c-31,0 -57,-14 -74,-39l-19 -28c-10,38 -45,67 -87,67l-25 0c-10,0 -19,-2 -27,-4 -9,2 -18,4 -27,4l-21 0c-10,0 -20,-2 -29,-5 -24,9 -49,12 -74,12 -65,0 -122,-23 -164,-72 -17,-20 -30,-41 -39,-64 -8,35 -26,67 -55,91 -38,33 -86,45 -136,45 -32,0 -63,-5 -92,-18 -13,7 -27,11 -43,11l-26 0c-37,0 -69,-22 -83,-56l-14 -34 -21 0 -14 34c-14,34 -45,56 -83,56l-26 0c-14,0 -27,-3 -38,-8 -12,5 -25,8 -38,8l-26 0c-26,0 -50,-12 -66,-30 -17,18 -41,30 -67,30l-26 0c-11,0 -22,-2 -31,-6 -10,4 -21,6 -32,6l-34 0c-31,0 -57,-14 -74,-39l-20 -28c-10,38 -45,67 -86,67l-25 0c-23,0 -44,-9 -59,-23 -35,22 -74,30 -116,30 -41,0 -81,-8 -115,-29 -16,13 -37,22 -59,22l-26 0c-20,0 -38,-6 -54,-18 -15,11 -34,18 -55,18l-29 0c-21,0 -40,-7 -56,-19 -15,13 -34,19 -54,19l-26 0c-24,0 -46,-10 -63,-26 -35,23 -77,33 -122,33 -35,0 -68,-6 -98,-20 -14,8 -30,13 -46,13l-34 0c-29,0 -55,-13 -72,-37l-10 -14c-15,30 -45,51 -81,51l-26 0c-49,0 -89,-40 -89,-90l0 -291c0,-15 3,-29 10,-42 -10,-14 -16,-32 -16,-51l0 -15c-45,-20 -81,-55 -94,-105 -9,-37 -1,-77 6,-114 2,-12 6,-30 6,-42 1,-58 -14,-102 1,-162 12,-47 42,-83 81,-107l0 -1575c0,-49 40,-90 89,-90l374 0c49,0 89,41 89,90l0 228c52,-143 166,-208 312,-229 70,-10 158,-5 227,16 33,10 67,25 97,45l47 -49c1,-1 1,-1 1,-1l11 -12c0,0 0,-1 1,-1 5,-5 10,-10 15,-16 41,-41 60,-71 127,-71l489 0c23,0 44,9 61,23 7,4 14,8 21,13 23,17 35,42 35,71l0 1012zm1924 -712l5 153c0,1 0,2 0,3 0,19 3,37 3,57 0,41 4,82 4,123 -1,20 3,40 3,61 0,54 6,108 7,163 41,3 83,4 116,33 26,24 35,53 40,86 4,28 8,55 13,82 11,54 23,108 34,162 8,48 12,95 -31,130 -24,20 -38,19 -64,24l-86 42c18,11 31,27 38,47 36,10 62,42 65,80 42,7 75,43 75,87 7,0 13,0 19,0l104 3c17,0 33,4 49,4 1,0 2,0 2,0l0 -1180c-5,0 -10,-1 -16,-1 -39,-1 -74,-5 -112,-14 -100,-24 -197,-72 -268,-145zm-2504 262l-3 3c0,0 -1,1 -1,1 -3,2 -5,4 -7,6 -15,14 -29,30 -44,45 1,9 2,17 3,26 6,34 26,71 52,107l0 -188zm1011 1630c10,18 16,38 19,58 6,-20 16,-39 28,-58l-47 0zm1200 -35c6,11 9,25 9,39l0 174 27 0 0 -174c0,-7 0,-14 2,-21 -12,-7 -22,-18 -29,-30 -3,4 -6,8 -9,12zm-2895 -40c17,10 31,25 39,45l27 66 28 -67c14,-34 46,-55 83,-55l38 0c11,0 21,2 31,6 9,-4 20,-6 30,-6l27 0c41,0 76,29 86,68 2,-7 5,-14 8,-20 -4,-4 -7,-7 -10,-11 -16,-18 -29,-38 -38,-61 -28,-73 -11,-153 11,-225 10,-35 23,-71 31,-106 18,-82 7,-159 39,-242 4,-12 10,-24 16,-35 20,-35 40,-51 70,-76 13,-11 28,-18 44,-20 0,-1 1,-1 2,-2 -5,-23 -10,-46 -18,-68 -8,-25 -19,-49 -30,-74 -29,-64 -63,-124 -95,-187 -34,-66 -61,-129 -84,-197 -7,3 -13,6 -20,9 -41,16 -73,41 -116,56 -63,21 -125,22 -184,-10 -7,-4 -14,-8 -20,-12 -12,49 -29,97 -50,145 -29,67 -66,129 -97,195 -18,40 -34,81 -43,124 -9,43 -7,83 -32,123 -1,2 -2,4 -3,5 24,18 51,34 70,46 65,42 126,85 162,155 28,53 40,114 6,163 0,1 0,1 0,2 33,56 51,119 33,184 -1,5 -3,11 -4,17 -3,24 -15,46 -34,60 0,1 -1,2 -2,3 0,1 -1,1 -1,2zm4156 5c13,10 24,23 31,40l27 66 28 -67c14,-34 46,-55 82,-55l39 0c32,0 60,18 76,44 3,-5 6,-10 10,-14 0,0 0,0 -1,-1l-291 -856 0 827c0,6 0,11 -1,16zm657 74l0 174 38 0 78 -191c-15,11 -33,17 -53,17l-63 0zm153 -73c15,-11 33,-17 53,-17l30 0c32,0 60,16 76,42 16,-25 44,-42 76,-42l33 0c7,0 14,1 21,3 0,-1 0,-2 0,-3l0 -826 -46 135c0,1 -1,1 -1,2 -46,126 -84,256 -131,383 -20,53 -38,109 -56,164 -13,37 -25,75 -38,112 -5,14 -11,31 -17,47zm-993 136l-56 78 56 80 0 -158zm-4243 118c3,0 11,0 13,-3 6,-7 7,-24 7,-32 0,-9 -1,-26 -7,-33 -2,-3 -10,-3 -13,-3 -3,0 -11,0 -13,3 -7,7 -7,24 -7,33 0,8 1,25 7,32 2,3 10,3 13,3z"/>
   </g>
   <g>
    <polygon class="fil1" points="193,3175 193,2884 219,2884 219,3043 380,2884 416,2884 293,3006 416,3175 382,3175 274,3025 219,3079 219,3175 "/>
    <path id="1" class="fil1" d="M696 3030c0,47 -12,85 -36,112 -24,27 -58,41 -100,41 -42,0 -76,-14 -100,-41 -24,-27 -36,-65 -36,-112 0,-48 12,-86 36,-113 24,-27 58,-41 100,-41 42,0 76,14 100,41 24,27 36,65 36,113zm-136 125c34,0 61,-11 81,-34 19,-22 29,-52 29,-91 0,-40 -10,-70 -29,-92 -20,-22 -47,-34 -81,-34 -34,0 -61,12 -81,34 -19,22 -29,52 -29,92 0,39 10,69 29,91 20,23 47,34 81,34z"/>
    <polygon id="2" class="fil1" points="745,3175 745,2884 786,2884 896,3148 1007,2884 1045,2884 1045,3175 1019,3175 1020,2909 910,3175 881,3175 768,2909 771,3175 "/>
    <path id="3" class="fil1" d="M1106 2884l27 0 0 179c0,31 7,55 21,70 13,14 35,22 65,22 30,0 52,-8 66,-23 14,-14 21,-38 21,-69l0 -179 26 0 0 186c0,37 -9,65 -29,84 -19,19 -47,29 -84,29 -37,0 -65,-10 -84,-29 -19,-19 -29,-48 -29,-85l0 -185z"/>
    <polygon id="4" class="fil1" points="1394,3175 1394,2884 1427,2884 1608,3145 1608,2884 1633,2884 1633,3175 1598,3175 1419,2914 1419,3175 "/>
    <polygon id="5" class="fil1" points="1696,3175 1696,2884 1722,2884 1722,3175 "/>
    <polygon id="6" class="fil1" points="1855,3175 1855,2910 1755,2910 1755,2884 1981,2884 1981,2910 1881,2910 1881,3175 "/>
    <path id="7" class="fil1" d="M2031 3057l119 0 -59 -149 -60 149zm-74 118l119 -291 30 0 118 291 -26 0 -36 -90 -142 0 -37 90 -26 0z"/>
    <path id="8" class="fil1" d="M2248 3079l27 0 0 2c0,22 7,40 22,53 15,14 35,20 60,20 24,0 44,-5 58,-16 15,-11 22,-25 22,-44 0,-14 -4,-24 -12,-31 -9,-7 -26,-14 -52,-19l-56 -11c-20,-4 -36,-12 -46,-24 -10,-12 -15,-28 -15,-49 0,-25 9,-46 27,-61 17,-15 41,-23 72,-23 31,0 55,8 73,24 18,16 28,38 29,66l-26 0c-2,-21 -9,-36 -22,-47 -13,-11 -31,-16 -54,-16 -22,0 -40,5 -53,15 -13,10 -20,24 -20,41 0,14 5,24 14,31 9,8 26,14 51,19l49 9c24,5 41,13 52,25 11,12 16,29 16,50 0,28 -9,50 -27,66 -19,16 -45,24 -78,24 -34,0 -61,-9 -81,-27 -20,-17 -30,-42 -30,-72l0 -5z"/>
    <path id="9" class="fil1" d="M2853 3122c-9,20 -22,35 -39,45 -17,11 -38,16 -62,16 -40,0 -72,-14 -96,-42 -24,-27 -36,-65 -36,-111 0,-48 12,-86 36,-113 24,-27 58,-41 100,-41 33,0 60,9 81,28 21,18 33,42 35,73l-27 0c-4,-24 -14,-42 -29,-54 -15,-12 -36,-18 -61,-18 -34,0 -60,11 -80,33 -19,22 -29,53 -29,92 0,38 10,68 29,91 19,22 45,34 78,34 27,0 50,-9 69,-27 19,-18 28,-39 28,-64l0 -14 -81 0 0 -26 108 0 0 151 -21 0 -3 -53z"/>
    <polygon id="10" class="fil1" points="2931,3175 2931,2884 2964,2884 3145,3145 3145,2884 3170,2884 3170,3175 3136,3175 2956,2914 2956,3175 "/>
    <path id="11" class="fil1" d="M3232 2884l26 0 0 179c0,31 7,55 21,70 14,14 36,22 66,22 30,0 52,-8 66,-23 14,-14 21,-38 21,-69l0 -179 26 0 0 186c0,37 -10,65 -29,84 -20,19 -48,29 -84,29 -37,0 -65,-10 -84,-29 -19,-19 -29,-48 -29,-85l0 -185z"/>
    <polygon id="12" class="fil1" points="3505,3213 3485,3213 3587,2876 3606,2876 "/>
    <polygon id="13" class="fil1" points="3619,3175 3619,2884 3645,2884 3645,3148 3808,3148 3808,3175 "/>
    <polygon id="14" class="fil1" points="3850,3175 3850,2884 3876,2884 3876,3175 "/>
    <polygon id="15" class="fil1" points="3939,3175 3939,2884 3972,2884 4153,3145 4153,2884 4178,2884 4178,3175 4144,3175 3964,2914 3964,3175 "/>
    <path id="16" class="fil1" d="M4240 2884l26 0 0 179c0,31 7,55 21,70 14,14 36,22 66,22 29,0 51,-8 65,-23 14,-14 21,-38 21,-69l0 -179 27 0 0 186c0,37 -10,65 -30,84 -19,19 -47,29 -83,29 -37,0 -65,-10 -84,-29 -20,-19 -29,-48 -29,-85l0 -185z"/>
    <polygon id="17" class="fil1" points="4499,3175 4605,3026 4507,2884 4540,2884 4623,3006 4706,2884 4738,2884 4637,3025 4743,3175 4709,3175 4621,3045 4533,3175 "/>
    <polygon id="18" class="fil1" points="4893,3175 4893,2884 4934,2884 5043,3148 5154,2884 5192,2884 5192,3175 5167,3175 5168,2909 5058,3175 5028,3175 4916,2909 4918,3175 "/>
    <path id="19" class="fil1" d="M5301 3057l119 0 -60 -149 -59 149zm-75 118l120 -291 30 0 118 291 -26 0 -37 -90 -142 0 -36 90 -27 0z"/>
    <polygon id="20" class="fil1" points="5527,3175 5527,2884 5553,2884 5553,3148 5716,3148 5716,3175 "/>
    <path id="21" class="fil1" d="M5804 3057l119 0 -60 -149 -59 149zm-75 118l120 -291 30 0 118 291 -26 0 -37 -90 -142 0 -36 90 -27 0z"/>
    <polygon id="22" class="fil1" points="6030,3175 6030,2884 6063,2884 6245,3145 6245,2884 6270,2884 6270,3175 6235,3175 6056,2914 6056,3175 "/>
    <path id="23" class="fil1" d="M6552 3122c-9,20 -22,35 -40,45 -17,11 -37,16 -61,16 -40,0 -72,-14 -96,-42 -24,-27 -36,-65 -36,-111 0,-48 12,-86 36,-113 24,-27 57,-41 100,-41 32,0 59,9 80,28 22,18 33,42 36,73l-27 0c-4,-24 -14,-42 -29,-54 -16,-12 -36,-18 -62,-18 -33,0 -60,11 -79,33 -19,22 -29,53 -29,92 0,38 9,68 29,91 19,22 45,34 77,34 28,0 51,-9 70,-27 19,-18 28,-39 28,-64l0 -14 -81 0 0 -26 107 0 0 151 -20 0 -3 -53z"/>
    <g>
     <path class="fil0" d="M4504 1021l0 1376 0 85 48 0c52,3 50,18 50,95l86 6c27,6 32,33 30,62 -2,29 -8,24 30,24 139,-2 116,2 116,125l34 0 0 -1359c10,12 136,390 146,421l319 938 343 0c11,-20 100,-294 117,-338 44,-117 88,-265 131,-382l131 -382c10,-30 20,-55 30,-86l56 -164c3,-7 1,-3 4,-7l0 1359 397 0 0 -1773c-86,2 -172,-9 -255,-19 -40,-5 -85,-9 -122,5 -32,13 -39,31 -51,51 -36,59 -67,147 -97,212l-250 569c-27,63 -54,126 -82,189 -28,60 -59,129 -83,189l-195 0c-52,-125 -110,-255 -166,-380 -57,-126 -109,-253 -166,-378 -56,-126 -108,-254 -165,-379 -36,-80 -81,-91 -184,-78 -86,10 -163,18 -252,19z"/>
     <path class="fil0" d="M737 2546c-8,-8 -22,-24 -26,-34 23,-14 89,-7 42,-97 -56,-107 -212,-141 -272,-237 -49,-79 -33,-192 -1,-276 36,-93 67,-138 135,-200 -3,49 -62,155 -81,199 -25,58 -59,168 -7,221 12,-20 15,-69 20,-96 42,-198 187,-315 211,-583 93,2 106,121 242,75 40,-14 70,-38 112,-55 45,-17 74,-37 100,-65l7 11c1,1 3,8 3,10 2,9 4,15 7,24 63,216 115,264 196,442 13,27 24,53 34,82 11,33 15,58 23,93l32 3c16,-94 10,-151 -30,-226 -30,-56 -95,-112 -113,-157 82,19 118,88 156,151 58,95 55,125 56,250 31,29 132,57 132,128l-44 6c-7,-8 -10,-17 -20,-29 -24,-26 -56,-42 -93,-53 -122,-39 -113,17 -135,40l-10 -10c-7,-7 -2,-4 -10,-8 -20,17 -35,26 -49,50 -40,73 -27,166 -46,253 -21,99 -94,235 -25,313 56,63 149,65 226,37 47,-17 3,-17 84,-17 133,0 265,0 398,0 -3,-10 -10,-17 -16,-25l-57 -76c-11,-14 -69,-86 -70,-103 14,-3 36,-20 45,-30 57,-58 -21,-123 -42,-150 -47,-62 -25,-173 -115,-194l17 -149c0,-20 3,-20 1,-35 -6,-55 -2,-48 -22,-107 -15,-45 -43,-103 -67,-144 -36,-59 -64,-94 -108,-147 -68,-80 -166,-180 -183,-285 -4,-25 -3,-56 -8,-77 20,-14 54,-54 75,-74 4,-4 6,-5 9,-8l11 -10c48,-43 116,-119 152,-150 1,0 2,-1 2,-1 31,-26 102,-100 132,-130l211 -204c7,-7 13,-13 19,-21l-489 0c-28,0 -29,11 -64,45 -5,5 -8,8 -13,13l-12 13c0,0 -1,1 -1,2l-54 55c-14,15 -41,45 -56,55 -27,-39 -78,-69 -125,-82 -50,-15 -126,-23 -188,-13 -116,16 -203,62 -242,175 -18,52 -23,117 -23,185 0,22 4,28 4,48l-1 159c-13,122 -29,144 -99,214 -14,14 -38,42 -53,52l0 -921 -374 0 0 1634c-35,8 -73,30 -83,69 -11,44 3,82 2,142 -1,39 -22,103 -15,133 9,35 53,57 96,57l0 85 346 1c61,8 132,35 210,-26 10,-7 8,-5 15,-15 33,-45 12,5 27,-52 11,-41 -4,-81 -24,-115 -6,-10 -16,-32 -24,-38zm236 -1349c11,6 68,25 82,23 4,-143 73,-98 74,-43 1,37 -17,48 -25,72 18,7 53,26 72,26 76,-74 48,-198 -29,-242 -78,-44 -182,11 -174,164zm-155 65l8 -8c-13,-36 -45,-70 -10,-108 36,4 19,43 44,73l60 -24c3,-80 -57,-198 -144,-143 -30,19 -48,63 -46,115 2,57 23,84 49,111l39 -16z"/>
     <path class="fil0" d="M3526 1626c-27,0 -56,7 -79,9 -26,3 -55,6 -77,11 -7,27 -11,54 -16,83l-31 166c-5,24 -16,59 -11,81 64,0 147,73 200,74 4,50 55,77 55,89l-4 30c-34,0 -78,7 -109,14 0,45 13,52 -37,54 -35,1 -24,7 -24,78 -10,1 -26,3 -39,5 -49,5 -35,1 -35,87 -64,0 -298,0 -333,17 0,15 0,29 0,44 0,55 -7,34 -58,38 -44,3 -38,7 -31,95l-88 3c-15,1 -12,3 -27,3 -6,27 -3,58 -3,85 -43,0 -110,-1 -146,7 -2,14 -4,8 -4,21 0,14 2,5 2,16 0,11 -11,52 8,52l1012 0c12,0 13,-14 17,-25 10,-29 21,-63 34,-91 -58,-14 -69,-102 -29,-142 52,-53 148,-18 148,50 0,47 -10,71 -51,92 2,17 15,42 20,58 6,17 20,42 21,58l1029 0 0 -89c-19,-4 -118,-7 -146,-7 -6,-26 -1,-58 -7,-85 -23,0 -31,-3 -54,-3 -20,0 -41,0 -61,0 2,-28 14,-66 0,-95l-85 -3c0,-18 -4,-29 -3,-51 0,-41 3,-38 -72,-38 -21,0 -28,-3 -51,-3l-105 -4c-18,-1 -37,1 -54,0 -16,0 -36,-5 -51,-6l0 -82c-24,0 -56,-2 -75,-7l0 -74c-16,-1 -42,-6 -58,-7 0,-23 -3,-32 -3,-51l-96 -13c-18,-3 -23,-5 -23,-21 0,-14 38,-26 55,-54 23,-40 3,-35 50,-58l110 -54c60,-27 64,48 11,-216 -31,-153 7,-115 -118,-134 -55,-8 -54,-11 -54,-69 1,-63 -7,-117 -6,-180 0,-26 -4,-37 -4,-61 0,-45 -3,-78 -3,-122 0,-24 -4,-33 -4,-58l-6 -241c0,-26 -4,-36 -4,-61 0,-58 -5,-123 -7,-180 0,-21 1,-44 0,-65 -1,-19 -2,-35 -3,-58 -1,-52 -16,-107 -40,-150 -5,-10 -18,-29 -25,-36 -10,-10 -28,-17 -44,-21 0,-17 -3,-17 -3,-34 -2,-54 -6,-108 -30,-157 -9,-19 -26,-28 -28,-50 -53,35 -72,129 -71,200 0,24 4,33 -11,44 -36,25 -27,7 -56,56 -38,64 -31,114 -40,177 -5,33 1,72 -4,105l-18 532c0,22 -4,29 -4,51 0,18 1,37 0,55l-4 103c-6,34 1,73 -4,106l-5 107z"/>
     <path class="fil0" d="M1603 1082l0 557 84 124c9,17 17,29 25,46 64,127 78,184 62,317 -3,23 -8,46 -8,70 50,33 55,36 73,108 19,76 18,66 62,118 48,56 59,136 -16,175 10,19 22,33 35,50 7,9 11,16 17,24l56 74c6,9 10,14 17,24 10,14 12,22 21,22l574 0c0,-90 -13,-121 58,-122l72 0c15,0 16,2 19,-8 9,-25 -14,-61 21,-77 10,-4 74,-7 92,-7 0,-66 -7,-96 61,-95 40,0 36,3 31,-35 -1,-13 2,-15 3,-26l-958 0 0 -1733c-12,3 -18,12 -26,21 -9,9 -16,16 -26,26 -8,8 -14,15 -24,23l-276 270c-9,10 -49,43 -49,54z"/>
     <path class="fil0" d="M4464 1060c93,-2 172,-10 262,-23 108,-14 154,-1 192,90 59,142 114,286 173,429 58,142 113,286 172,429 59,142 120,289 173,431l204 0c24,-69 57,-146 86,-214 29,-72 57,-143 86,-215l260 -645c31,-74 64,-174 101,-241 12,-22 20,-43 54,-57 37,-16 84,-12 126,-6 87,12 177,23 266,22 144,-5 276,-27 381,-141 29,-32 52,-67 66,-113 42,-139 17,-320 -85,-418 -27,-27 -69,-57 -117,-57 0,1 2,0 2,1l15 7c25,10 31,13 53,31 67,55 95,148 103,247 2,28 -8,84 -13,104 -20,75 -63,128 -128,158 -13,7 -28,13 -40,18 -49,19 -124,30 -194,23 -239,-21 -475,-196 -638,27l-24 35 -66 167c-23,57 -44,111 -66,167l-66 167c-12,26 -21,55 -32,81l-132 334c-12,30 -22,54 -33,84l-57 145c-6,14 -2,11 -12,19l-31 -81c-11,-30 -22,-55 -33,-84 -10,-28 -21,-54 -33,-84l-195 -496c-8,-15 -11,-23 -17,-40 -28,-79 -116,-281 -138,-354 -6,-20 -20,-38 -32,-54 -193,-286 -524,56 -831,-55 -52,-19 -98,-44 -133,-90 -70,-94 -62,-276 -4,-372 7,-12 15,-22 23,-33 24,-31 46,-48 81,-63l20 -9c-86,0 -156,88 -188,166 -36,86 -44,213 -12,313 42,133 173,207 294,235 71,17 97,11 157,15z"/>
     <path class="fil0" d="M826 1258l-8 7c-20,19 -43,35 -61,54 -51,52 10,66 76,119 20,17 42,35 73,45 71,23 129,-17 180,-43 26,-12 54,-25 78,-40 27,-16 32,-25 44,-45 9,-14 0,-1 16,-8 -3,-9 -40,-52 -77,-70 -35,-16 -71,-24 -105,-42 -141,-72 -177,9 -216,23zm576 936c-59,29 -49,177 -63,251 -13,74 -68,188 -52,262 22,111 170,111 260,48 27,-18 67,-65 131,-110 169,-118 272,-77 151,-219 -34,-40 -30,-57 -46,-113 -43,-145 -152,-41 -189,-24 -37,16 -93,26 -132,5 -36,-19 -43,-60 -60,-100zm-1016 -1c-89,24 -34,82 -175,133 -36,13 -80,28 -81,71 -1,52 19,81 6,143 -33,157 -5,132 135,146 133,14 143,37 242,67 91,28 185,39 232,-32 51,-77 -37,-168 -71,-207 -71,-81 -69,-83 -128,-181 -31,-52 -81,-161 -160,-140z"/>
     <path class="fil0" d="M2676 2388l282 0 0 -271c0,-8 -3,-11 -11,-11l-271 0 0 282zm-317 -271l0 271 282 0 0 -282 -271 0c-8,0 -11,3 -11,11zm-317 271l282 0 0 -271c0,-8 -3,-11 -11,-11l-271 0 0 282zm0 -317l282 0 0 -271c0,-8 -2,-11 -10,-11l-272 0 0 282z"/>
    </g>
   </g>
   <path class="fil0" d="M455 1748l1103 0 0 677c250,-33 540,-51 850,-51 935,0 1694,169 1694,378 0,68 -81,132 -221,187l1020 0c33,0 61,24 67,55l567 0 0 -200 237 0 0 200 480 0 0 181 187 0 0 162 -187 0 0 3 -5692 0 0 -3 -326 0 0 -162 326 0 0 -181 543 0c-243,-66 -389,-150 -389,-242 0,0 0,-1 0,-1l-259 0 0 -1003z"/>
   <rect class="fil0" x="701" y="1407" width="644" height="399"/>
   <ellipse class="fil0" cx="585" cy="3045" rx="155" ry="130"/>
   <g>
    <path class="fil0" d="M2402 3433c-20,6 -40,4 -64,4 -23,0 -47,0 -70,0 -23,0 -45,-3 -68,-3 -301,1 -602,-6 -904,-6 -370,0 -741,-10 -1111,-10 -44,0 -79,-35 -79,-78l0 -3c0,-43 35,-78 79,-78 46,0 93,0 140,0 46,0 92,-3 138,-3 46,0 93,0 140,0 46,0 92,-2 137,-2 47,0 94,0 140,0 46,0 92,-2 138,-2 47,0 94,0 140,0 46,0 92,-2 138,-2 47,0 94,0 140,0 46,0 92,-3 138,-3 47,0 94,0 140,0 46,0 92,-2 138,-2 47,0 93,0 140,0 46,0 92,-2 138,-2l210 0c14,-1 22,-3 36,-2 0,0 0,0 0,-1 15,-20 37,-32 63,-32l20 0c14,0 27,4 38,10 11,-6 24,-10 38,-10l23 0c14,0 27,4 39,10 11,-6 24,-10 38,-10l19 0c1,0 3,0 4,0 1,0 2,0 3,0l19 0c14,0 27,4 39,10 11,-6 24,-10 38,-10l23 0c14,0 27,4 38,10 12,-6 25,-10 39,-10l19 0c1,0 2,0 3,0 1,0 2,0 3,0l20 0c14,0 27,4 38,10 12,-6 25,-10 38,-10l24 0c14,0 27,4 38,10 11,-6 25,-10 38,-10l20 0c4,0 8,1 12,1 9,-32 40,-56 75,-56l18 0c29,0 54,15 68,38 14,-23 39,-38 67,-38l18 0c7,0 14,1 20,2 7,-1 13,-2 20,-2l18 0c36,0 67,24 76,57 12,-3 25,-5 38,-5 18,0 37,3 54,10 17,-7 35,-10 54,-10 37,0 72,12 98,40 6,7 11,14 16,22 3,-5 7,-10 12,-15 29,-33 68,-49 112,-49 23,0 46,5 66,14 11,-5 23,-9 37,-9l18 0c1,0 3,0 4,1 12,-4 24,-6 37,-6 7,0 14,1 21,2 11,-31 40,-52 74,-52l18 0c34,0 64,22 74,53 3,0 6,0 9,-1 11,-30 40,-52 74,-52l18 0c43,0 79,35 79,78l0 10c8,0 16,1 23,2l207 0c46,0 92,2 138,2 47,0 93,0 140,0 46,0 92,2 138,2 47,0 93,0 140,0 46,0 92,3 138,3 47,0 93,0 140,0 46,0 92,2 138,2 47,0 93,0 140,0 46,0 92,2 138,2 46,0 93,0 140,0 46,0 92,2 138,2 46,0 93,0 140,0 46,0 92,3 138,3 46,0 93,0 140,0 43,0 78,35 78,78l0 3c0,43 -35,78 -78,78 -279,0 -558,7 -836,7 -371,0 -741,9 -1112,9 -46,0 -92,3 -138,3 -23,0 -46,0 -70,0 -7,0 -14,0 -20,0l0 4c0,43 -36,79 -79,79l-18 0c-5,0 -11,-1 -16,-2 -12,3 -25,5 -38,5 -23,0 -45,-5 -64,-14 -12,7 -25,11 -39,11l-18 0c-9,0 -18,-2 -26,-5 -8,3 -16,5 -25,5l-21 0c-12,0 -23,-3 -32,-7 -10,4 -21,7 -32,7l-18 0c-14,0 -26,-4 -37,-9 -20,9 -43,14 -66,14 -26,0 -51,-6 -73,-18 -12,8 -27,13 -42,13l-21 0c-9,0 -17,-2 -25,-4 -8,2 -16,4 -25,4l-18 0c-17,0 -33,-6 -45,-15 -13,9 -29,15 -46,15l-16 0c-17,0 -33,-6 -46,-15 -13,9 -29,15 -46,15l-18 0c-7,0 -13,-1 -19,-3 -7,2 -13,3 -20,3l-18 0c-7,0 -13,-1 -20,-3 -6,2 -13,3 -20,3l-18 0c-3,0 -6,-1 -9,-1 -3,0 -7,1 -10,1l-24 0c-17,0 -33,-5 -46,-15 -13,9 -29,15 -46,15l-18 0c-9,0 -17,-2 -25,-5 -8,3 -16,5 -25,5l-21 0c-11,0 -22,-3 -32,-7 -9,4 -20,7 -31,7l-22 0c-14,0 -27,-4 -38,-10 -12,6 -25,10 -39,10l-22 0c-19,0 -37,-7 -50,-18 -14,11 -32,18 -51,18l-21 0c-14,0 -27,-4 -39,-10 -11,6 -25,10 -39,10l-21 0c-20,0 -37,-7 -51,-18 -14,11 -31,18 -51,18l-21 0c-14,0 -27,-4 -39,-10 -11,6 -24,10 -38,10l-22 0c-35,0 -65,-22 -75,-56l-10 -31z"/>
   </g>
   <g>
    <path class="fil1" d="M2487 3441l-48 -154 20 0 40 135 36 -135 23 0 39 135 38 -135 19 0 -47 154 -21 0 -39 -137 -38 137 -22 0zm222 0l-48 -154 19 0 40 135 37 -135 23 0 39 135 38 -135 19 0 -47 154 -21 0 -39 -137 -39 137 -21 0zm221 0l-48 -154 20 0 40 135 36 -135 24 0 38 135 38 -135 20 0 -47 154 -22 0 -39 -137 -38 137 -22 0zm184 0l0 -26 21 0 0 26 -21 0zm71 0l0 -210 18 0 0 128 79 -72 27 0 -63 57 73 97 -24 0 -63 -85 -29 26 0 59 -18 0zm153 0l0 -210 18 0 0 210 -18 0zm58 -186l0 -24 18 0 0 24 -18 0zm0 186l0 -154 18 0 0 154 -18 0zm57 0l0 -154 18 0 0 29c6,-11 14,-19 24,-24 10,-5 21,-8 33,-8 13,0 24,3 32,8 8,5 14,13 18,24 7,-11 15,-19 25,-24 10,-5 21,-8 33,-8 18,0 31,5 40,14 8,9 12,24 12,43l0 100 -18 0 0 -87c0,-19 -3,-33 -8,-40 -6,-8 -16,-12 -29,-12 -16,0 -29,5 -39,15 -10,9 -15,21 -15,36l0 88 -16 0 0 -87c0,-19 -3,-33 -9,-40 -6,-8 -15,-12 -29,-12 -16,0 -29,5 -39,15 -10,9 -15,21 -15,36l0 88 -18 0zm285 0l0 -26 21 0 0 26 -21 0zm81 -77c0,19 5,34 15,46 10,11 23,17 40,17 16,0 30,-6 39,-17 10,-12 15,-27 15,-46 0,-19 -5,-34 -15,-46 -9,-11 -23,-17 -39,-17 -17,0 -30,6 -40,17 -10,12 -15,27 -15,46zm-18 0c0,-25 6,-44 20,-60 13,-15 31,-22 53,-22 21,0 39,7 53,22 13,16 20,35 20,60 0,24 -7,44 -20,60 -14,15 -32,22 -53,22 -22,0 -40,-7 -53,-22 -14,-16 -20,-36 -20,-60zm194 77l-18 0 0 -154 18 0 0 26c4,-10 9,-18 16,-23 8,-6 16,-8 25,-8 3,0 6,0 9,1 3,0 6,1 9,3l0 19c-3,-1 -6,-1 -9,-2 -2,0 -5,-1 -7,-1 -11,0 -20,4 -27,10 -7,7 -13,16 -16,29l0 100zm64 0l0 -26 21 0 0 26 -21 0zm72 -186l0 -24 18 0 0 24 -18 0zm0 186l0 -154 18 0 0 154 -18 0zm175 -78c0,-18 -5,-33 -15,-45 -9,-11 -23,-16 -39,-16 -16,0 -29,5 -39,17 -10,11 -15,26 -15,44 0,19 5,34 15,45 10,11 23,17 39,17 17,0 30,-6 40,-17 9,-11 14,-26 14,-45zm18 -132l0 210 -18 0 0 -27c-6,10 -14,18 -23,23 -9,5 -19,7 -31,7 -22,0 -39,-7 -52,-22 -14,-15 -20,-35 -20,-59 0,-24 6,-43 20,-58 13,-15 30,-22 52,-22 11,0 21,2 30,7 9,5 17,13 24,23l0 -82 18 0z"/>
    <g>
     <path class="fil0" d="M4370 3335c0,30 21,23 53,23 24,0 47,0 70,0 46,0 90,-2 138,-2 369,0 744,-9 1112,-9 278,0 559,-7 836,-7l0 -3c-47,0 -94,0 -140,0 -49,0 -92,-2 -138,-2 -47,0 -94,0 -140,0 -49,0 -92,-2 -138,-2 -47,0 -94,0 -140,0 -49,0 -92,-2 -138,-2 -47,0 -93,0 -140,0 -49,0 -91,-3 -138,-3 -47,0 -93,0 -140,0 -49,0 -91,-2 -138,-2 -47,0 -93,0 -140,0 -48,0 -91,-2 -138,-2 -47,0 -93,0 -140,0 -48,0 -91,-2 -138,-2l-210 0c-7,0 -53,-10 -53,13z"/>
     <path class="fil0" d="M185 3337l0 3c367,0 742,9 1111,9 299,0 603,7 904,7 24,0 42,2 68,2 23,0 47,0 70,0 33,0 55,7 55,-23 0,-10 -11,-15 -19,-16 -12,-1 -20,3 -34,3l-210 0c-47,0 -89,2 -138,2 -47,0 -93,0 -140,0 -47,0 -89,2 -138,2 -46,0 -93,0 -140,0 -47,0 -89,2 -138,2 -46,0 -93,0 -140,0 -46,0 -89,3 -138,3 -46,0 -93,0 -140,0 -46,0 -89,2 -138,2 -46,0 -93,0 -140,0 -46,0 -89,2 -137,2 -47,0 -94,0 -140,0 -47,0 -90,2 -138,2 -47,0 -94,0 -140,0z"/>
    </g>
   </g>
   <g>
    <polygon class="fil2" points="193,3175 193,2884 219,2884 219,3043 380,2884 416,2884 293,3006 416,3175 382,3175 274,3025 219,3079 219,3175 "/>
    <path id="1" class="fil2" d="M696 3030c0,47 -12,85 -36,112 -24,27 -58,41 -100,41 -42,0 -76,-14 -100,-41 -24,-27 -36,-65 -36,-112 0,-48 12,-86 36,-113 24,-27 58,-41 100,-41 42,0 76,14 100,41 24,27 36,65 36,113zm-136 125c34,0 61,-11 81,-34 19,-22 29,-52 29,-91 0,-40 -10,-70 -29,-92 -20,-22 -47,-34 -81,-34 -34,0 -61,12 -81,34 -19,22 -29,52 -29,92 0,39 10,69 29,91 20,23 47,34 81,34z"/>
    <polygon id="2" class="fil2" points="745,3175 745,2884 786,2884 896,3148 1007,2884 1045,2884 1045,3175 1019,3175 1020,2909 910,3175 881,3175 768,2909 771,3175 "/>
    <path id="3" class="fil2" d="M1106 2884l27 0 0 179c0,31 7,55 21,70 13,14 35,22 65,22 30,0 52,-8 66,-23 14,-14 21,-38 21,-69l0 -179 26 0 0 186c0,37 -9,65 -29,84 -19,19 -47,29 -84,29 -37,0 -65,-10 -84,-29 -19,-19 -29,-48 -29,-85l0 -185z"/>
    <polygon id="4" class="fil2" points="1394,3175 1394,2884 1427,2884 1608,3145 1608,2884 1633,2884 1633,3175 1598,3175 1419,2914 1419,3175 "/>
    <polygon id="5" class="fil2" points="1696,3175 1696,2884 1722,2884 1722,3175 "/>
    <polygon id="6" class="fil2" points="1855,3175 1855,2910 1755,2910 1755,2884 1981,2884 1981,2910 1881,2910 1881,3175 "/>
    <path id="7" class="fil2" d="M2031 3057l119 0 -59 -149 -60 149zm-74 118l119 -291 30 0 118 291 -26 0 -36 -90 -142 0 -37 90 -26 0z"/>
    <path id="8" class="fil2" d="M2248 3079l27 0 0 2c0,22 7,40 22,53 15,14 35,20 60,20 24,0 44,-5 58,-16 15,-11 22,-25 22,-44 0,-14 -4,-24 -12,-31 -9,-7 -26,-14 -52,-19l-56 -11c-20,-4 -36,-12 -46,-24 -10,-12 -15,-28 -15,-49 0,-25 9,-46 27,-61 17,-15 41,-23 72,-23 31,0 55,8 73,24 18,16 28,38 29,66l-26 0c-2,-21 -9,-36 -22,-47 -13,-11 -31,-16 -54,-16 -22,0 -40,5 -53,15 -13,10 -20,24 -20,41 0,14 5,24 14,31 9,8 26,14 51,19l49 9c24,5 41,13 52,25 11,12 16,29 16,50 0,28 -9,50 -27,66 -19,16 -45,24 -78,24 -34,0 -61,-9 -81,-27 -20,-17 -30,-42 -30,-72l0 -5z"/>
    <path id="9" class="fil2" d="M2853 3122c-9,20 -22,35 -39,45 -17,11 -38,16 -62,16 -40,0 -72,-14 -96,-42 -24,-27 -36,-65 -36,-111 0,-48 12,-86 36,-113 24,-27 58,-41 100,-41 33,0 60,9 81,28 21,18 33,42 35,73l-27 0c-4,-24 -14,-42 -29,-54 -15,-12 -36,-18 -61,-18 -34,0 -60,11 -80,33 -19,22 -29,53 -29,92 0,38 10,68 29,91 19,22 45,34 78,34 27,0 50,-9 69,-27 19,-18 28,-39 28,-64l0 -14 -81 0 0 -26 108 0 0 151 -21 0 -3 -53z"/>
    <polygon id="10" class="fil2" points="2931,3175 2931,2884 2964,2884 3145,3145 3145,2884 3170,2884 3170,3175 3136,3175 2956,2914 2956,3175 "/>
    <path id="11" class="fil2" d="M3232 2884l26 0 0 179c0,31 7,55 21,70 14,14 36,22 66,22 30,0 52,-8 66,-23 14,-14 21,-38 21,-69l0 -179 26 0 0 186c0,37 -10,65 -29,84 -20,19 -48,29 -84,29 -37,0 -65,-10 -84,-29 -19,-19 -29,-48 -29,-85l0 -185z"/>
    <polygon id="12" class="fil2" points="3505,3213 3485,3213 3587,2876 3606,2876 "/>
    <polygon id="13" class="fil2" points="3619,3175 3619,2884 3645,2884 3645,3148 3808,3148 3808,3175 "/>
    <polygon id="14" class="fil2" points="3850,3175 3850,2884 3876,2884 3876,3175 "/>
    <polygon id="15" class="fil2" points="3939,3175 3939,2884 3972,2884 4153,3145 4153,2884 4178,2884 4178,3175 4144,3175 3964,2914 3964,3175 "/>
    <path id="16" class="fil2" d="M4240 2884l26 0 0 179c0,31 7,55 21,70 14,14 36,22 66,22 29,0 51,-8 65,-23 14,-14 21,-38 21,-69l0 -179 27 0 0 186c0,37 -10,65 -30,84 -19,19 -47,29 -83,29 -37,0 -65,-10 -84,-29 -20,-19 -29,-48 -29,-85l0 -185z"/>
    <polygon id="17" class="fil2" points="4499,3175 4605,3026 4507,2884 4540,2884 4623,3006 4706,2884 4738,2884 4637,3025 4743,3175 4709,3175 4621,3045 4533,3175 "/>
    <polygon id="18" class="fil2" points="4893,3175 4893,2884 4934,2884 5043,3148 5154,2884 5192,2884 5192,3175 5167,3175 5168,2909 5058,3175 5028,3175 4916,2909 4918,3175 "/>
    <path id="19" class="fil2" d="M5301 3057l119 0 -60 -149 -59 149zm-75 118l120 -291 30 0 118 291 -26 0 -37 -90 -142 0 -36 90 -27 0z"/>
    <polygon id="20" class="fil2" points="5527,3175 5527,2884 5553,2884 5553,3148 5716,3148 5716,3175 "/>
    <path id="21" class="fil2" d="M5804 3057l119 0 -60 -149 -59 149zm-75 118l120 -291 30 0 118 291 -26 0 -37 -90 -142 0 -36 90 -27 0z"/>
    <polygon id="22" class="fil2" points="6030,3175 6030,2884 6063,2884 6245,3145 6245,2884 6270,2884 6270,3175 6235,3175 6056,2914 6056,3175 "/>
    <path id="23" class="fil2" d="M6552 3122c-9,20 -22,35 -40,45 -17,11 -37,16 -61,16 -40,0 -72,-14 -96,-42 -24,-27 -36,-65 -36,-111 0,-48 12,-86 36,-113 24,-27 57,-41 100,-41 32,0 59,9 80,28 22,18 33,42 36,73l-27 0c-4,-24 -14,-42 -29,-54 -16,-12 -36,-18 -62,-18 -33,0 -60,11 -79,33 -19,22 -29,53 -29,92 0,38 9,68 29,91 19,22 45,34 77,34 28,0 51,-9 70,-27 19,-18 28,-39 28,-64l0 -14 -81 0 0 -26 107 0 0 151 -20 0 -3 -53z"/>
    <g>
     <path class="fil3" d="M4504 1021l0 1376 0 85 48 0c52,3 50,18 50,95l86 6c27,6 32,33 30,62 -2,29 -8,24 30,24 139,-2 116,2 116,125l34 0 0 -1359c10,12 136,390 146,421l319 938 343 0c11,-20 100,-294 117,-338 44,-117 88,-265 131,-382l131 -382c10,-30 20,-55 30,-86l56 -164c3,-7 1,-3 4,-7l0 1359 397 0 0 -1773c-86,2 -172,-9 -255,-19 -40,-5 -85,-9 -122,5 -32,13 -39,31 -51,51 -36,59 -67,147 -97,212l-250 569c-27,63 -54,126 -82,189 -28,60 -59,129 -83,189l-195 0c-52,-125 -110,-255 -166,-380 -57,-126 -109,-253 -166,-378 -56,-126 -108,-254 -165,-379 -36,-80 -81,-91 -184,-78 -86,10 -163,18 -252,19z"/>
     <path class="fil3" d="M737 2546c-8,-8 -22,-24 -26,-34 23,-14 89,-7 42,-97 -56,-107 -212,-141 -272,-237 -49,-79 -33,-192 -1,-276 36,-93 67,-138 135,-200 -3,49 -62,155 -81,199 -25,58 -59,168 -7,221 12,-20 15,-69 20,-96 42,-198 187,-315 211,-583 93,2 106,121 242,75 40,-14 70,-38 112,-55 45,-17 74,-37 100,-65l7 11c1,1 3,8 3,10 2,9 4,15 7,24 63,216 115,264 196,442 13,27 24,53 34,82 11,33 15,58 23,93l32 3c16,-94 10,-151 -30,-226 -30,-56 -95,-112 -113,-157 82,19 118,88 156,151 58,95 55,125 56,250 31,29 132,57 132,128l-44 6c-7,-8 -10,-17 -20,-29 -24,-26 -56,-42 -93,-53 -122,-39 -113,17 -135,40l-10 -10c-7,-7 -2,-4 -10,-8 -20,17 -35,26 -49,50 -40,73 -27,166 -46,253 -21,99 -94,235 -25,313 56,63 149,65 226,37 47,-17 3,-17 84,-17 133,0 265,0 398,0 -3,-10 -10,-17 -16,-25l-57 -76c-11,-14 -69,-86 -70,-103 14,-3 36,-20 45,-30 57,-58 -21,-123 -42,-150 -47,-62 -25,-173 -115,-194l17 -149c0,-20 3,-20 1,-35 -6,-55 -2,-48 -22,-107 -15,-45 -43,-103 -67,-144 -36,-59 -64,-94 -108,-147 -68,-80 -166,-180 -183,-285 -4,-25 -3,-56 -8,-77 20,-14 54,-54 75,-74 4,-4 6,-5 9,-8l11 -10c48,-43 116,-119 152,-150 1,0 2,-1 2,-1 31,-26 102,-100 132,-130l211 -204c7,-7 13,-13 19,-21l-489 0c-28,0 -29,11 -64,45 -5,5 -8,8 -13,13l-12 13c0,0 -1,1 -1,2l-54 55c-14,15 -41,45 -56,55 -27,-39 -78,-69 -125,-82 -50,-15 -126,-23 -188,-13 -116,16 -203,62 -242,175 -18,52 -23,117 -23,185 0,22 4,28 4,48l-1 159c-13,122 -29,144 -99,214 -14,14 -38,42 -53,52l0 -921 -374 0 0 1634c-35,8 -73,30 -83,69 -11,44 3,82 2,142 -1,39 -22,103 -15,133 9,35 53,57 96,57l0 85 346 1c61,8 132,35 210,-26 10,-7 8,-5 15,-15 33,-45 12,5 27,-52 11,-41 -4,-81 -24,-115 -6,-10 -16,-32 -24,-38zm236 -1349c11,6 68,25 82,23 4,-143 73,-98 74,-43 1,37 -17,48 -25,72 18,7 53,26 72,26 76,-74 48,-198 -29,-242 -78,-44 -182,11 -174,164zm-155 65l8 -8c-13,-36 -45,-70 -10,-108 36,4 19,43 44,73l60 -24c3,-80 -57,-198 -144,-143 -30,19 -48,63 -46,115 2,57 23,84 49,111l39 -16z"/>
     <path class="fil4" d="M3526 1626c-27,0 -56,7 -79,9 -26,3 -55,6 -77,11 -7,27 -11,54 -16,83l-31 166c-5,24 -16,59 -11,81 64,0 147,73 200,74 4,50 55,77 55,89l-4 30c-34,0 -78,7 -109,14 0,45 13,52 -37,54 -35,1 -24,7 -24,78 -10,1 -26,3 -39,5 -49,5 -35,1 -35,87 -64,0 -298,0 -333,17 0,15 0,29 0,44 0,55 -7,34 -58,38 -44,3 -38,7 -31,95l-88 3c-15,1 -12,3 -27,3 -6,27 -3,58 -3,85 -43,0 -110,-1 -146,7 -2,14 -4,8 -4,21 0,14 2,5 2,16 0,11 -11,52 8,52l1012 0c12,0 13,-14 17,-25 10,-29 21,-63 34,-91 -58,-14 -69,-102 -29,-142 52,-53 148,-18 148,50 0,47 -10,71 -51,92 2,17 15,42 20,58 6,17 20,42 21,58l1029 0 0 -89c-19,-4 -118,-7 -146,-7 -6,-26 -1,-58 -7,-85 -23,0 -31,-3 -54,-3 -20,0 -41,0 -61,0 2,-28 14,-66 0,-95l-85 -3c0,-18 -4,-29 -3,-51 0,-41 3,-38 -72,-38 -21,0 -28,-3 -51,-3l-105 -4c-18,-1 -37,1 -54,0 -16,0 -36,-5 -51,-6l0 -82c-24,0 -56,-2 -75,-7l0 -74c-16,-1 -42,-6 -58,-7 0,-23 -3,-32 -3,-51l-96 -13c-18,-3 -23,-5 -23,-21 0,-14 38,-26 55,-54 23,-40 3,-35 50,-58l110 -54c60,-27 64,48 11,-216 -31,-153 7,-115 -118,-134 -55,-8 -54,-11 -54,-69 1,-63 -7,-117 -6,-180 0,-26 -4,-37 -4,-61 0,-45 -3,-78 -3,-122 0,-24 -4,-33 -4,-58l-6 -241c0,-26 -4,-36 -4,-61 0,-58 -5,-123 -7,-180 0,-21 1,-44 0,-65 -1,-19 -2,-35 -3,-58 -1,-52 -16,-107 -40,-150 -5,-10 -18,-29 -25,-36 -10,-10 -28,-17 -44,-21 0,-17 -3,-17 -3,-34 -2,-54 -6,-108 -30,-157 -9,-19 -26,-28 -28,-50 -53,35 -72,129 -71,200 0,24 4,33 -11,44 -36,25 -27,7 -56,56 -38,64 -31,114 -40,177 -5,33 1,72 -4,105l-18 532c0,22 -4,29 -4,51 0,18 1,37 0,55l-4 103c-6,34 1,73 -4,106l-5 107z"/>
     <path class="fil3" d="M1603 1082l0 557 84 124c9,17 17,29 25,46 64,127 78,184 62,317 -3,23 -8,46 -8,70 50,33 55,36 73,108 19,76 18,66 62,118 48,56 59,136 -16,175 10,19 22,33 35,50 7,9 11,16 17,24l56 74c6,9 10,14 17,24 10,14 12,22 21,22l574 0c0,-90 -13,-121 58,-122l72 0c15,0 16,2 19,-8 9,-25 -14,-61 21,-77 10,-4 74,-7 92,-7 0,-66 -7,-96 61,-95 40,0 36,3 31,-35 -1,-13 2,-15 3,-26l-958 0 0 -1733c-12,3 -18,12 -26,21 -9,9 -16,16 -26,26 -8,8 -14,15 -24,23l-276 270c-9,10 -49,43 -49,54z"/>
     <path class="fil5" d="M4464 1060c93,-2 172,-10 262,-23 108,-14 154,-1 192,90 59,142 114,286 173,429 58,142 113,286 172,429 59,142 120,289 173,431l204 0c24,-69 57,-146 86,-214 29,-72 57,-143 86,-215l260 -645c31,-74 64,-174 101,-241 12,-22 20,-43 54,-57 37,-16 84,-12 126,-6 87,12 177,23 266,22 144,-5 276,-27 381,-141 29,-32 52,-67 66,-113 42,-139 17,-320 -85,-418 -27,-27 -69,-57 -117,-57 0,1 2,0 2,1l15 7c25,10 31,13 53,31 67,55 95,148 103,247 2,28 -8,84 -13,104 -20,75 -63,128 -128,158 -13,7 -28,13 -40,18 -49,19 -124,30 -194,23 -239,-21 -475,-196 -638,27l-24 35 -66 167c-23,57 -44,111 -66,167l-66 167c-12,26 -21,55 -32,81l-132 334c-12,30 -22,54 -33,84l-57 145c-6,14 -2,11 -12,19l-31 -81c-11,-30 -22,-55 -33,-84 -10,-28 -21,-54 -33,-84l-195 -496c-8,-15 -11,-23 -17,-40 -28,-79 -116,-281 -138,-354 -6,-20 -20,-38 -32,-54 -193,-286 -524,56 -831,-55 -52,-19 -98,-44 -133,-90 -70,-94 -62,-276 -4,-372 7,-12 15,-22 23,-33 24,-31 46,-48 81,-63l20 -9c-86,0 -156,88 -188,166 -36,86 -44,213 -12,313 42,133 173,207 294,235 71,17 97,11 157,15z"/>
     <path class="fil5" d="M826 1258l-8 7c-20,19 -43,35 -61,54 -51,52 10,66 76,119 20,17 42,35 73,45 71,23 129,-17 180,-43 26,-12 54,-25 78,-40 27,-16 32,-25 44,-45 9,-14 0,-1 16,-8 -3,-9 -40,-52 -77,-70 -35,-16 -71,-24 -105,-42 -141,-72 -177,9 -216,23zm576 936c-59,29 -49,177 -63,251 -13,74 -68,188 -52,262 22,111 170,111 260,48 27,-18 67,-65 131,-110 169,-118 272,-77 151,-219 -34,-40 -30,-57 -46,-113 -43,-145 -152,-41 -189,-24 -37,16 -93,26 -132,5 -36,-19 -43,-60 -60,-100zm-1016 -1c-89,24 -34,82 -175,133 -36,13 -80,28 -81,71 -1,52 19,81 6,143 -33,157 -5,132 135,146 133,14 143,37 242,67 91,28 185,39 232,-32 51,-77 -37,-168 -71,-207 -71,-81 -69,-83 -128,-181 -31,-52 -81,-161 -160,-140z"/>
     <path class="fil5" d="M2676 2388l282 0 0 -271c0,-8 -3,-11 -11,-11l-271 0 0 282zm-317 -271l0 271 282 0 0 -282 -271 0c-8,0 -11,3 -11,11zm-317 271l282 0 0 -271c0,-8 -3,-11 -11,-11l-271 0 0 282zm0 -317l282 0 0 -271c0,-8 -2,-11 -10,-11l-272 0 0 282z"/>
    </g>
   </g>
   <g>
    <path class="fil2" d="M2487 3441l-48 -154 20 0 40 135 36 -135 23 0 39 135 38 -135 19 0 -47 154 -21 0 -39 -137 -38 137 -22 0zm222 0l-48 -154 19 0 40 135 37 -135 23 0 39 135 38 -135 19 0 -47 154 -21 0 -39 -137 -39 137 -21 0zm221 0l-48 -154 20 0 40 135 36 -135 24 0 38 135 38 -135 20 0 -47 154 -22 0 -39 -137 -38 137 -22 0zm184 0l0 -26 21 0 0 26 -21 0zm71 0l0 -210 18 0 0 128 79 -72 27 0 -63 57 73 97 -24 0 -63 -85 -29 26 0 59 -18 0zm153 0l0 -210 18 0 0 210 -18 0zm58 -186l0 -24 18 0 0 24 -18 0zm0 186l0 -154 18 0 0 154 -18 0zm57 0l0 -154 18 0 0 29c6,-11 14,-19 24,-24 10,-5 21,-8 33,-8 13,0 24,3 32,8 8,5 14,13 18,24 7,-11 15,-19 25,-24 10,-5 21,-8 33,-8 18,0 31,5 40,14 8,9 12,24 12,43l0 100 -18 0 0 -87c0,-19 -3,-33 -8,-40 -6,-8 -16,-12 -29,-12 -16,0 -29,5 -39,15 -10,9 -15,21 -15,36l0 88 -16 0 0 -87c0,-19 -3,-33 -9,-40 -6,-8 -15,-12 -29,-12 -16,0 -29,5 -39,15 -10,9 -15,21 -15,36l0 88 -18 0zm285 0l0 -26 21 0 0 26 -21 0zm81 -77c0,19 5,34 15,46 10,11 23,17 40,17 16,0 30,-6 39,-17 10,-12 15,-27 15,-46 0,-19 -5,-34 -15,-46 -9,-11 -23,-17 -39,-17 -17,0 -30,6 -40,17 -10,12 -15,27 -15,46zm-18 0c0,-25 6,-44 20,-60 13,-15 31,-22 53,-22 21,0 39,7 53,22 13,16 20,35 20,60 0,24 -7,44 -20,60 -14,15 -32,22 -53,22 -22,0 -40,-7 -53,-22 -14,-16 -20,-36 -20,-60zm194 77l-18 0 0 -154 18 0 0 26c4,-10 9,-18 16,-23 8,-6 16,-8 25,-8 3,0 6,0 9,1 3,0 6,1 9,3l0 19c-3,-1 -6,-1 -9,-2 -2,0 -5,-1 -7,-1 -11,0 -20,4 -27,10 -7,7 -13,16 -16,29l0 100zm64 0l0 -26 21 0 0 26 -21 0zm72 -186l0 -24 18 0 0 24 -18 0zm0 186l0 -154 18 0 0 154 -18 0zm175 -78c0,-18 -5,-33 -15,-45 -9,-11 -23,-16 -39,-16 -16,0 -29,5 -39,17 -10,11 -15,26 -15,44 0,19 5,34 15,45 10,11 23,17 39,17 17,0 30,-6 40,-17 9,-11 14,-26 14,-45zm18 -132l0 210 -18 0 0 -27c-6,10 -14,18 -23,23 -9,5 -19,7 -31,7 -22,0 -39,-7 -52,-22 -14,-15 -20,-35 -20,-59 0,-24 6,-43 20,-58 13,-15 30,-22 52,-22 11,0 21,2 30,7 9,5 17,13 24,23l0 -82 18 0z"/>
    <g>
     <path class="fil3" d="M4370 3335c0,30 21,23 53,23 24,0 47,0 70,0 46,0 90,-2 138,-2 369,0 744,-9 1112,-9 278,0 559,-7 836,-7l0 -3c-47,0 -94,0 -140,0 -49,0 -92,-2 -138,-2 -47,0 -94,0 -140,0 -49,0 -92,-2 -138,-2 -47,0 -94,0 -140,0 -49,0 -92,-2 -138,-2 -47,0 -93,0 -140,0 -49,0 -91,-3 -138,-3 -47,0 -93,0 -140,0 -49,0 -91,-2 -138,-2 -47,0 -93,0 -140,0 -48,0 -91,-2 -138,-2 -47,0 -93,0 -140,0 -48,0 -91,-2 -138,-2l-210 0c-7,0 -53,-10 -53,13z"/>
     <path class="fil3" d="M185 3337l0 3c367,0 742,9 1111,9 299,0 603,7 904,7 24,0 42,2 68,2 23,0 47,0 70,0 33,0 55,7 55,-23 0,-10 -11,-15 -19,-16 -12,-1 -20,3 -34,3l-210 0c-47,0 -89,2 -138,2 -47,0 -93,0 -140,0 -47,0 -89,2 -138,2 -46,0 -93,0 -140,0 -47,0 -89,2 -138,2 -46,0 -93,0 -140,0 -46,0 -89,3 -138,3 -46,0 -93,0 -140,0 -46,0 -89,2 -138,2 -46,0 -93,0 -140,0 -46,0 -89,2 -137,2 -47,0 -94,0 -140,0 -47,0 -90,2 -138,2 -47,0 -94,0 -140,0z"/>
    </g>
   </g>
  </g>
 </g>
</svg>
