<?xml version="1.0" encoding="UTF-8" standalone="no"?>
<!-- Created with Inkscape (http://www.inkscape.org/) -->

<svg
   xmlns:dc="http://purl.org/dc/elements/1.1/"
   xmlns:cc="http://creativecommons.org/ns#"
   xmlns:rdf="http://www.w3.org/1999/02/22-rdf-syntax-ns#"
   xmlns:svg="http://www.w3.org/2000/svg"
   xmlns="http://www.w3.org/2000/svg"
   xmlns:sodipodi="http://sodipodi.sourceforge.net/DTD/sodipodi-0.dtd"
   xmlns:inkscape="http://www.inkscape.org/namespaces/inkscape"
   xml:space="preserve"
   width="7.17488in"
   height="3.52516in"
   version="1.1"
   style="shape-rendering:geometricPrecision; text-rendering:geometricPrecision; image-rendering:optimizeQuality; fill-rule:evenodd; clip-rule:evenodd"
   viewBox="0 0 7175 3525"
   id="svg2"
   inkscape:version="0.91 r13725"
   sodipodi:docname="01 - KLiM Sticker+rev1.svg"><metadata
     id="metadata156"><rdf:RDF><cc:Work
         rdf:about=""><dc:format>image/svg+xml</dc:format><dc:type
           rdf:resource="http://purl.org/dc/dcmitype/StillImage" /><dc:title></dc:title></cc:Work></rdf:RDF></metadata><sodipodi:namedview
     pagecolor="#ffffff"
     bordercolor="#666666"
     borderopacity="1"
     objecttolerance="10"
     gridtolerance="10"
     guidetolerance="10"
     inkscape:pageopacity="0"
     inkscape:pageshadow="2"
     inkscape:window-width="1366"
     inkscape:window-height="719"
     id="namedview154"
     showgrid="false"
     inkscape:zoom="0.16151761"
     inkscape:cx="212.68175"
     inkscape:cy="-132.12848"
     inkscape:window-x="0"
     inkscape:window-y="25"
     inkscape:window-maximized="1"
     inkscape:current-layer="svg2" /><defs
     id="defs4"><style
       type="text/css"
       id="style6"><![CDATA[
    .fil0 {fill:#FEFEFE}
    .fil3 {fill:#373435}
    .fil4 {fill:#1E87F7}
    .fil5 {fill:#F7941E}
    .fil1 {fill:#FEFEFE;fill-rule:nonzero}
    .fil2 {fill:#373435;fill-rule:nonzero}
   ]]></style></defs><g
     id="g4472"
     inkscape:export-xdpi="299"
     inkscape:export-ydpi="299"
     transform="translate(-12696.113,2961.7884)"><g
       transform="translate(12696.102,-2967.2883)"
       style="fill:#ffffff"
       id="g15"><polygon
         style="fill:#ffffff;fill-rule:nonzero"
         id="polygon17"
         points="416,3175 382,3175 274,3025 219,3079 219,3175 193,3175 193,2884 219,2884 219,3043 380,2884 416,2884 293,3006 "
         class="fil1" /><path
         style="fill:#ffffff;fill-rule:nonzero"
         inkscape:connector-curvature="0"
         d="m 696,3030 c 0,47 -12,85 -36,112 -24,27 -58,41 -100,41 -42,0 -76,-14 -100,-41 -24,-27 -36,-65 -36,-112 0,-48 12,-86 36,-113 24,-27 58,-41 100,-41 42,0 76,14 100,41 24,27 36,65 36,113 z m -136,125 c 34,0 61,-11 81,-34 19,-22 29,-52 29,-91 0,-40 -10,-70 -29,-92 -20,-22 -47,-34 -81,-34 -34,0 -61,12 -81,34 -19,22 -29,52 -29,92 0,39 10,69 29,91 20,23 47,34 81,34 z"
         class="fil1"
         id="1" /><polygon
         style="fill:#ffffff;fill-rule:nonzero"
         points="1019,3175 1020,2909 910,3175 881,3175 768,2909 771,3175 745,3175 745,2884 786,2884 896,3148 1007,2884 1045,2884 1045,3175 "
         class="fil1"
         id="2" /><path
         style="fill:#ffffff;fill-rule:nonzero"
         inkscape:connector-curvature="0"
         d="m 1106,2884 27,0 0,179 c 0,31 7,55 21,70 13,14 35,22 65,22 30,0 52,-8 66,-23 14,-14 21,-38 21,-69 l 0,-179 26,0 0,186 c 0,37 -9,65 -29,84 -19,19 -47,29 -84,29 -37,0 -65,-10 -84,-29 -19,-19 -29,-48 -29,-85 l 0,-185 z"
         class="fil1"
         id="3" /><polygon
         style="fill:#ffffff;fill-rule:nonzero"
         points="1598,3175 1419,2914 1419,3175 1394,3175 1394,2884 1427,2884 1608,3145 1608,2884 1633,2884 1633,3175 "
         class="fil1"
         id="4" /><polygon
         style="fill:#ffffff;fill-rule:nonzero"
         points="1722,3175 1696,3175 1696,2884 1722,2884 "
         class="fil1"
         id="5" /><polygon
         style="fill:#ffffff;fill-rule:nonzero"
         points="1881,3175 1855,3175 1855,2910 1755,2910 1755,2884 1981,2884 1981,2910 1881,2910 "
         class="fil1"
         id="6" /><path
         style="fill:#ffffff;fill-rule:nonzero"
         inkscape:connector-curvature="0"
         d="m 2031,3057 119,0 -59,-149 -60,149 z m -74,118 119,-291 30,0 118,291 -26,0 -36,-90 -142,0 -37,90 -26,0 z"
         class="fil1"
         id="7" /><path
         style="fill:#ffffff;fill-rule:nonzero"
         inkscape:connector-curvature="0"
         d="m 2248,3079 27,0 0,2 c 0,22 7,40 22,53 15,14 35,20 60,20 24,0 44,-5 58,-16 15,-11 22,-25 22,-44 0,-14 -4,-24 -12,-31 -9,-7 -26,-14 -52,-19 l -56,-11 c -20,-4 -36,-12 -46,-24 -10,-12 -15,-28 -15,-49 0,-25 9,-46 27,-61 17,-15 41,-23 72,-23 31,0 55,8 73,24 18,16 28,38 29,66 l -26,0 c -2,-21 -9,-36 -22,-47 -13,-11 -31,-16 -54,-16 -22,0 -40,5 -53,15 -13,10 -20,24 -20,41 0,14 5,24 14,31 9,8 26,14 51,19 l 49,9 c 24,5 41,13 52,25 11,12 16,29 16,50 0,28 -9,50 -27,66 -19,16 -45,24 -78,24 -34,0 -61,-9 -81,-27 -20,-17 -30,-42 -30,-72 l 0,-5 z"
         class="fil1"
         id="8" /><path
         style="fill:#ffffff;fill-rule:nonzero"
         inkscape:connector-curvature="0"
         d="m 2853,3122 c -9,20 -22,35 -39,45 -17,11 -38,16 -62,16 -40,0 -72,-14 -96,-42 -24,-27 -36,-65 -36,-111 0,-48 12,-86 36,-113 24,-27 58,-41 100,-41 33,0 60,9 81,28 21,18 33,42 35,73 l -27,0 c -4,-24 -14,-42 -29,-54 -15,-12 -36,-18 -61,-18 -34,0 -60,11 -80,33 -19,22 -29,53 -29,92 0,38 10,68 29,91 19,22 45,34 78,34 27,0 50,-9 69,-27 19,-18 28,-39 28,-64 l 0,-14 -81,0 0,-26 108,0 0,151 -21,0 -3,-53 z"
         class="fil1"
         id="9" /><polygon
         style="fill:#ffffff;fill-rule:nonzero"
         points="3136,3175 2956,2914 2956,3175 2931,3175 2931,2884 2964,2884 3145,3145 3145,2884 3170,2884 3170,3175 "
         class="fil1"
         id="10" /><path
         style="fill:#ffffff;fill-rule:nonzero"
         inkscape:connector-curvature="0"
         d="m 3232,2884 26,0 0,179 c 0,31 7,55 21,70 14,14 36,22 66,22 30,0 52,-8 66,-23 14,-14 21,-38 21,-69 l 0,-179 26,0 0,186 c 0,37 -10,65 -29,84 -20,19 -48,29 -84,29 -37,0 -65,-10 -84,-29 -19,-19 -29,-48 -29,-85 l 0,-185 z"
         class="fil1"
         id="11" /><polygon
         style="fill:#ffffff;fill-rule:nonzero"
         points="3606,2876 3505,3213 3485,3213 3587,2876 "
         class="fil1"
         id="12" /><polygon
         style="fill:#ffffff;fill-rule:nonzero"
         points="3619,2884 3645,2884 3645,3148 3808,3148 3808,3175 3619,3175 "
         class="fil1"
         id="13" /><polygon
         style="fill:#ffffff;fill-rule:nonzero"
         points="3876,3175 3850,3175 3850,2884 3876,2884 "
         class="fil1"
         id="14" /><polygon
         style="fill:#ffffff;fill-rule:nonzero"
         points="4144,3175 3964,2914 3964,3175 3939,3175 3939,2884 3972,2884 4153,3145 4153,2884 4178,2884 4178,3175 "
         class="fil1"
         id="15" /><path
         style="fill:#ffffff;fill-rule:nonzero"
         inkscape:connector-curvature="0"
         d="m 4240,2884 26,0 0,179 c 0,31 7,55 21,70 14,14 36,22 66,22 29,0 51,-8 65,-23 14,-14 21,-38 21,-69 l 0,-179 27,0 0,186 c 0,37 -10,65 -30,84 -19,19 -47,29 -83,29 -37,0 -65,-10 -84,-29 -20,-19 -29,-48 -29,-85 l 0,-185 z"
         class="fil1"
         id="16" /><polygon
         style="fill:#ffffff;fill-rule:nonzero"
         points="4637,3025 4743,3175 4709,3175 4621,3045 4533,3175 4499,3175 4605,3026 4507,2884 4540,2884 4623,3006 4706,2884 4738,2884 "
         class="fil1"
         id="17" /><polygon
         style="fill:#ffffff;fill-rule:nonzero"
         points="5167,3175 5168,2909 5058,3175 5028,3175 4916,2909 4918,3175 4893,3175 4893,2884 4934,2884 5043,3148 5154,2884 5192,2884 5192,3175 "
         class="fil1"
         id="18" /><path
         style="fill:#ffffff;fill-rule:nonzero"
         inkscape:connector-curvature="0"
         d="m 5301,3057 119,0 -60,-149 -59,149 z m -75,118 120,-291 30,0 118,291 -26,0 -37,-90 -142,0 -36,90 -27,0 z"
         class="fil1"
         id="19" /><polygon
         style="fill:#ffffff;fill-rule:nonzero"
         points="5527,2884 5553,2884 5553,3148 5716,3148 5716,3175 5527,3175 "
         class="fil1"
         id="20" /><path
         style="fill:#ffffff;fill-rule:nonzero"
         inkscape:connector-curvature="0"
         d="m 5804,3057 119,0 -60,-149 -59,149 z m -75,118 120,-291 30,0 118,291 -26,0 -37,-90 -142,0 -36,90 -27,0 z"
         class="fil1"
         id="21" /><polygon
         style="fill:#ffffff;fill-rule:nonzero"
         points="6235,3175 6056,2914 6056,3175 6030,3175 6030,2884 6063,2884 6245,3145 6245,2884 6270,2884 6270,3175 "
         class="fil1"
         id="22" /><path
         style="fill:#ffffff;fill-rule:nonzero"
         inkscape:connector-curvature="0"
         d="m 6552,3122 c -9,20 -22,35 -40,45 -17,11 -37,16 -61,16 -40,0 -72,-14 -96,-42 -24,-27 -36,-65 -36,-111 0,-48 12,-86 36,-113 24,-27 57,-41 100,-41 32,0 59,9 80,28 22,18 33,42 36,73 l -27,0 c -4,-24 -14,-42 -29,-54 -16,-12 -36,-18 -62,-18 -33,0 -60,11 -79,33 -19,22 -29,53 -29,92 0,38 9,68 29,91 19,22 45,34 77,34 28,0 51,-9 70,-27 19,-18 28,-39 28,-64 l 0,-14 -81,0 0,-26 107,0 0,151 -20,0 -3,-53 z"
         class="fil1"
         id="23" /><g
         style="fill:#ffffff"
         id="g42"><path
           style="fill:#ffffff"
           inkscape:connector-curvature="0"
           id="path44"
           d="m 4504,1021 0,1376 0,85 48,0 c 52,3 50,18 50,95 l 86,6 c 27,6 32,33 30,62 -2,29 -8,24 30,24 139,-2 116,2 116,125 l 34,0 0,-1359 c 10,12 136,390 146,421 l 319,938 343,0 c 11,-20 100,-294 117,-338 44,-117 88,-265 131,-382 l 131,-382 c 10,-30 20,-55 30,-86 l 56,-164 c 3,-7 1,-3 4,-7 l 0,1359 397,0 0,-1773 c -86,2 -172,-9 -255,-19 -40,-5 -85,-9 -122,5 -32,13 -39,31 -51,51 -36,59 -67,147 -97,212 l -250,569 c -27,63 -54,126 -82,189 -28,60 -59,129 -83,189 l -195,0 c -52,-125 -110,-255 -166,-380 -57,-126 -109,-253 -166,-378 -56,-126 -108,-254 -165,-379 -36,-80 -81,-91 -184,-78 -86,10 -163,18 -252,19 z"
           class="fil0" /><path
           style="fill:#ffffff"
           inkscape:connector-curvature="0"
           id="path46"
           d="m 737,2546 c -8,-8 -22,-24 -26,-34 23,-14 89,-7 42,-97 -56,-107 -212,-141 -272,-237 -49,-79 -33,-192 -1,-276 36,-93 67,-138 135,-200 -3,49 -62,155 -81,199 -25,58 -59,168 -7,221 12,-20 15,-69 20,-96 42,-198 187,-315 211,-583 93,2 106,121 242,75 40,-14 70,-38 112,-55 45,-17 74,-37 100,-65 l 7,11 c 1,1 3,8 3,10 2,9 4,15 7,24 63,216 115,264 196,442 13,27 24,53 34,82 11,33 15,58 23,93 l 32,3 c 16,-94 10,-151 -30,-226 -30,-56 -95,-112 -113,-157 82,19 118,88 156,151 58,95 55,125 56,250 31,29 132,57 132,128 l -44,6 c -7,-8 -10,-17 -20,-29 -24,-26 -56,-42 -93,-53 -122,-39 -113,17 -135,40 l -10,-10 c -7,-7 -2,-4 -10,-8 -20,17 -35,26 -49,50 -40,73 -27,166 -46,253 -21,99 -94,235 -25,313 56,63 149,65 226,37 47,-17 3,-17 84,-17 133,0 265,0 398,0 -3,-10 -10,-17 -16,-25 l -57,-76 c -11,-14 -69,-86 -70,-103 14,-3 36,-20 45,-30 57,-58 -21,-123 -42,-150 -47,-62 -25,-173 -115,-194 l 17,-149 c 0,-20 3,-20 1,-35 -6,-55 -2,-48 -22,-107 -15,-45 -43,-103 -67,-144 -36,-59 -64,-94 -108,-147 -68,-80 -166,-180 -183,-285 -4,-25 -3,-56 -8,-77 20,-14 54,-54 75,-74 4,-4 6,-5 9,-8 l 11,-10 c 48,-43 116,-119 152,-150 1,0 2,-1 2,-1 31,-26 102,-100 132,-130 l 211,-204 c 7,-7 13,-13 19,-21 l -489,0 c -28,0 -29,11 -64,45 -5,5 -8,8 -13,13 l -12,13 c 0,0 -1,1 -1,2 l -54,55 c -14,15 -41,45 -56,55 -27,-39 -78,-69 -125,-82 -50,-15 -126,-23 -188,-13 -116,16 -203,62 -242,175 -18,52 -23,117 -23,185 0,22 4,28 4,48 l -1,159 c -13,122 -29,144 -99,214 -14,14 -38,42 -53,52 l 0,-921 -374,0 0,1634 c -35,8 -73,30 -83,69 -11,44 3,82 2,142 -1,39 -22,103 -15,133 9,35 53,57 96,57 l 0,85 346,1 c 61,8 132,35 210,-26 10,-7 8,-5 15,-15 33,-45 12,5 27,-52 11,-41 -4,-81 -24,-115 -6,-10 -16,-32 -24,-38 z M 973,1197 c 11,6 68,25 82,23 4,-143 73,-98 74,-43 1,37 -17,48 -25,72 18,7 53,26 72,26 76,-74 48,-198 -29,-242 -78,-44 -182,11 -174,164 z m -155,65 8,-8 c -13,-36 -45,-70 -10,-108 36,4 19,43 44,73 l 60,-24 c 3,-80 -57,-198 -144,-143 -30,19 -48,63 -46,115 2,57 23,84 49,111 l 39,-16 z"
           class="fil0" /><path
           style="fill:#ffffff"
           inkscape:connector-curvature="0"
           id="path48"
           d="m 3526,1626 c -27,0 -56,7 -79,9 -26,3 -55,6 -77,11 -7,27 -11,54 -16,83 l -31,166 c -5,24 -16,59 -11,81 64,0 147,73 200,74 4,50 55,77 55,89 l -4,30 c -34,0 -78,7 -109,14 0,45 13,52 -37,54 -35,1 -24,7 -24,78 -10,1 -26,3 -39,5 -49,5 -35,1 -35,87 -64,0 -298,0 -333,17 0,15 0,29 0,44 0,55 -7,34 -58,38 -44,3 -38,7 -31,95 l -88,3 c -15,1 -12,3 -27,3 -6,27 -3,58 -3,85 -43,0 -110,-1 -146,7 -2,14 -4,8 -4,21 0,14 2,5 2,16 0,11 -11,52 8,52 l 1012,0 c 12,0 13,-14 17,-25 10,-29 21,-63 34,-91 -58,-14 -69,-102 -29,-142 52,-53 148,-18 148,50 0,47 -10,71 -51,92 2,17 15,42 20,58 6,17 20,42 21,58 l 1029,0 0,-89 c -19,-4 -118,-7 -146,-7 -6,-26 -1,-58 -7,-85 -23,0 -31,-3 -54,-3 -20,0 -41,0 -61,0 2,-28 14,-66 0,-95 l -85,-3 c 0,-18 -4,-29 -3,-51 0,-41 3,-38 -72,-38 -21,0 -28,-3 -51,-3 l -105,-4 c -18,-1 -37,1 -54,0 -16,0 -36,-5 -51,-6 l 0,-82 c -24,0 -56,-2 -75,-7 l 0,-74 c -16,-1 -42,-6 -58,-7 0,-23 -3,-32 -3,-51 l -96,-13 c -18,-3 -23,-5 -23,-21 0,-14 38,-26 55,-54 23,-40 3,-35 50,-58 l 110,-54 c 60,-27 64,48 11,-216 -31,-153 7,-115 -118,-134 -55,-8 -54,-11 -54,-69 1,-63 -7,-117 -6,-180 0,-26 -4,-37 -4,-61 0,-45 -3,-78 -3,-122 0,-24 -4,-33 -4,-58 l -6,-241 c 0,-26 -4,-36 -4,-61 0,-58 -5,-123 -7,-180 0,-21 1,-44 0,-65 -1,-19 -2,-35 -3,-58 -1,-52 -16,-107 -40,-150 -5,-10 -18,-29 -25,-36 -10,-10 -28,-17 -44,-21 0,-17 -3,-17 -3,-34 -2,-54 -6,-108 -30,-157 -9,-19 -26,-28 -28,-50 -53,35 -72,129 -71,200 0,24 4,33 -11,44 -36,25 -27,7 -56,56 -38,64 -31,114 -40,177 -5,33 1,72 -4,105 l -18,532 c 0,22 -4,29 -4,51 0,18 1,37 0,55 l -4,103 c -6,34 1,73 -4,106 l -5,107 z"
           class="fil0" /><path
           style="fill:#ffffff"
           inkscape:connector-curvature="0"
           id="path50"
           d="m 1603,1082 0,557 84,124 c 9,17 17,29 25,46 64,127 78,184 62,317 -3,23 -8,46 -8,70 50,33 55,36 73,108 19,76 18,66 62,118 48,56 59,136 -16,175 10,19 22,33 35,50 7,9 11,16 17,24 l 56,74 c 6,9 10,14 17,24 10,14 12,22 21,22 l 574,0 c 0,-90 -13,-121 58,-122 l 72,0 c 15,0 16,2 19,-8 9,-25 -14,-61 21,-77 10,-4 74,-7 92,-7 0,-66 -7,-96 61,-95 40,0 36,3 31,-35 -1,-13 2,-15 3,-26 l -958,0 0,-1733 c -12,3 -18,12 -26,21 -9,9 -16,16 -26,26 -8,8 -14,15 -24,23 l -276,270 c -9,10 -49,43 -49,54 z"
           class="fil0" /><path
           style="fill:#ffffff"
           inkscape:connector-curvature="0"
           id="path52"
           d="m 4464,1060 c 93,-2 172,-10 262,-23 108,-14 154,-1 192,90 59,142 114,286 173,429 58,142 113,286 172,429 59,142 120,289 173,431 l 204,0 c 24,-69 57,-146 86,-214 29,-72 57,-143 86,-215 l 260,-645 c 31,-74 64,-174 101,-241 12,-22 20,-43 54,-57 37,-16 84,-12 126,-6 87,12 177,23 266,22 144,-5 276,-27 381,-141 29,-32 52,-67 66,-113 42,-139 17,-320 -85,-418 -27,-27 -69,-57 -117,-57 0,1 2,0 2,1 l 15,7 c 25,10 31,13 53,31 67,55 95,148 103,247 2,28 -8,84 -13,104 -20,75 -63,128 -128,158 -13,7 -28,13 -40,18 -49,19 -124,30 -194,23 -239,-21 -475,-196 -638,27 l -24,35 -66,167 c -23,57 -44,111 -66,167 l -66,167 c -12,26 -21,55 -32,81 l -132,334 c -12,30 -22,54 -33,84 l -57,145 c -6,14 -2,11 -12,19 l -31,-81 c -11,-30 -22,-55 -33,-84 -10,-28 -21,-54 -33,-84 l -195,-496 c -8,-15 -11,-23 -17,-40 -28,-79 -116,-281 -138,-354 -6,-20 -20,-38 -32,-54 -193,-286 -524,56 -831,-55 -52,-19 -98,-44 -133,-90 -70,-94 -62,-276 -4,-372 7,-12 15,-22 23,-33 24,-31 46,-48 81,-63 l 20,-9 c -86,0 -156,88 -188,166 -36,86 -44,213 -12,313 42,133 173,207 294,235 71,17 97,11 157,15 z"
           class="fil0" /><path
           style="fill:#ffffff"
           inkscape:connector-curvature="0"
           id="path54"
           d="m 826,1258 -8,7 c -20,19 -43,35 -61,54 -51,52 10,66 76,119 20,17 42,35 73,45 71,23 129,-17 180,-43 26,-12 54,-25 78,-40 27,-16 32,-25 44,-45 9,-14 0,-1 16,-8 -3,-9 -40,-52 -77,-70 -35,-16 -71,-24 -105,-42 -141,-72 -177,9 -216,23 z m 576,936 c -59,29 -49,177 -63,251 -13,74 -68,188 -52,262 22,111 170,111 260,48 27,-18 67,-65 131,-110 169,-118 272,-77 151,-219 -34,-40 -30,-57 -46,-113 -43,-145 -152,-41 -189,-24 -37,16 -93,26 -132,5 -36,-19 -43,-60 -60,-100 z m -1016,-1 c -89,24 -34,82 -175,133 -36,13 -80,28 -81,71 -1,52 19,81 6,143 -33,157 -5,132 135,146 133,14 143,37 242,67 91,28 185,39 232,-32 51,-77 -37,-168 -71,-207 -71,-81 -69,-83 -128,-181 -31,-52 -81,-161 -160,-140 z"
           class="fil0" /><path
           style="fill:#ffffff"
           inkscape:connector-curvature="0"
           id="path56"
           d="m 2676,2388 282,0 0,-271 c 0,-8 -3,-11 -11,-11 l -271,0 0,282 z m -317,-271 0,271 282,0 0,-282 -271,0 c -8,0 -11,3 -11,11 z m -317,271 282,0 0,-271 c 0,-8 -3,-11 -11,-11 l -271,0 0,282 z m 0,-317 282,0 0,-271 c 0,-8 -2,-11 -10,-11 l -272,0 0,282 z"
           class="fil0" /></g></g><g
       transform="translate(12696.102,-2967.2883)"
       style="fill:#ffffff"
       id="g68"><path
         style="fill:#ffffff;fill-rule:nonzero"
         inkscape:connector-curvature="0"
         id="path70"
         d="m 2487,3441 -48,-154 20,0 40,135 36,-135 23,0 39,135 38,-135 19,0 -47,154 -21,0 -39,-137 -38,137 -22,0 z m 222,0 -48,-154 19,0 40,135 37,-135 23,0 39,135 38,-135 19,0 -47,154 -21,0 -39,-137 -39,137 -21,0 z m 221,0 -48,-154 20,0 40,135 36,-135 24,0 38,135 38,-135 20,0 -47,154 -22,0 -39,-137 -38,137 -22,0 z m 184,0 0,-26 21,0 0,26 -21,0 z m 71,0 0,-210 18,0 0,128 79,-72 27,0 -63,57 73,97 -24,0 -63,-85 -29,26 0,59 -18,0 z m 153,0 0,-210 18,0 0,210 -18,0 z m 58,-186 0,-24 18,0 0,24 -18,0 z m 0,186 0,-154 18,0 0,154 -18,0 z m 57,0 0,-154 18,0 0,29 c 6,-11 14,-19 24,-24 10,-5 21,-8 33,-8 13,0 24,3 32,8 8,5 14,13 18,24 7,-11 15,-19 25,-24 10,-5 21,-8 33,-8 18,0 31,5 40,14 8,9 12,24 12,43 l 0,100 -18,0 0,-87 c 0,-19 -3,-33 -8,-40 -6,-8 -16,-12 -29,-12 -16,0 -29,5 -39,15 -10,9 -15,21 -15,36 l 0,88 -16,0 0,-87 c 0,-19 -3,-33 -9,-40 -6,-8 -15,-12 -29,-12 -16,0 -29,5 -39,15 -10,9 -15,21 -15,36 l 0,88 -18,0 z m 285,0 0,-26 21,0 0,26 -21,0 z m 81,-77 c 0,19 5,34 15,46 10,11 23,17 40,17 16,0 30,-6 39,-17 10,-12 15,-27 15,-46 0,-19 -5,-34 -15,-46 -9,-11 -23,-17 -39,-17 -17,0 -30,6 -40,17 -10,12 -15,27 -15,46 z m -18,0 c 0,-25 6,-44 20,-60 13,-15 31,-22 53,-22 21,0 39,7 53,22 13,16 20,35 20,60 0,24 -7,44 -20,60 -14,15 -32,22 -53,22 -22,0 -40,-7 -53,-22 -14,-16 -20,-36 -20,-60 z m 194,77 -18,0 0,-154 18,0 0,26 c 4,-10 9,-18 16,-23 8,-6 16,-8 25,-8 3,0 6,0 9,1 3,0 6,1 9,3 l 0,19 c -3,-1 -6,-1 -9,-2 -2,0 -5,-1 -7,-1 -11,0 -20,4 -27,10 -7,7 -13,16 -16,29 l 0,100 z m 64,0 0,-26 21,0 0,26 -21,0 z m 72,-186 0,-24 18,0 0,24 -18,0 z m 0,186 0,-154 18,0 0,154 -18,0 z m 175,-78 c 0,-18 -5,-33 -15,-45 -9,-11 -23,-16 -39,-16 -16,0 -29,5 -39,17 -10,11 -15,26 -15,44 0,19 5,34 15,45 10,11 23,17 39,17 17,0 30,-6 40,-17 9,-11 14,-26 14,-45 z m 18,-132 0,210 -18,0 0,-27 c -6,10 -14,18 -23,23 -9,5 -19,7 -31,7 -22,0 -39,-7 -52,-22 -14,-15 -20,-35 -20,-59 0,-24 6,-43 20,-58 13,-15 30,-22 52,-22 11,0 21,2 30,7 9,5 17,13 24,23 l 0,-82 18,0 z"
         class="fil1" /><g
         style="fill:#ffffff"
         id="g72"><path
           style="fill:#ffffff"
           inkscape:connector-curvature="0"
           id="path74"
           d="m 4370,3335 c 0,30 21,23 53,23 24,0 47,0 70,0 46,0 90,-2 138,-2 369,0 744,-9 1112,-9 278,0 559,-7 836,-7 l 0,-3 c -47,0 -94,0 -140,0 -49,0 -92,-2 -138,-2 -47,0 -94,0 -140,0 -49,0 -92,-2 -138,-2 -47,0 -94,0 -140,0 -49,0 -92,-2 -138,-2 -47,0 -93,0 -140,0 -49,0 -91,-3 -138,-3 -47,0 -93,0 -140,0 -49,0 -91,-2 -138,-2 -47,0 -93,0 -140,0 -48,0 -91,-2 -138,-2 -47,0 -93,0 -140,0 -48,0 -91,-2 -138,-2 l -210,0 c -7,0 -53,-10 -53,13 z"
           class="fil0" /><path
           style="fill:#ffffff"
           inkscape:connector-curvature="0"
           id="path76"
           d="m 185,3337 0,3 c 367,0 742,9 1111,9 299,0 603,7 904,7 24,0 42,2 68,2 23,0 47,0 70,0 33,0 55,7 55,-23 0,-10 -11,-15 -19,-16 -12,-1 -20,3 -34,3 l -210,0 c -47,0 -89,2 -138,2 -47,0 -93,0 -140,0 -47,0 -89,2 -138,2 -46,0 -93,0 -140,0 -47,0 -89,2 -138,2 -46,0 -93,0 -140,0 -46,0 -89,3 -138,3 -46,0 -93,0 -140,0 -46,0 -89,2 -138,2 -46,0 -93,0 -140,0 -46,0 -89,2 -137,2 -47,0 -94,0 -140,0 -47,0 -90,2 -138,2 -47,0 -94,0 -140,0 z"
           class="fil0" /></g></g><g
       transform="translate(12696.102,-2967.2883)"
       style="fill:#ffffff"
       id="g78"><polygon
         style="fill:#ffffff;fill-rule:nonzero"
         id="polygon80"
         points="416,3175 382,3175 274,3025 219,3079 219,3175 193,3175 193,2884 219,2884 219,3043 380,2884 416,2884 293,3006 "
         class="fil2" /><path
         style="fill:#ffffff;fill-rule:nonzero"
         inkscape:connector-curvature="0"
         d="m 696,3030 c 0,47 -12,85 -36,112 -24,27 -58,41 -100,41 -42,0 -76,-14 -100,-41 -24,-27 -36,-65 -36,-112 0,-48 12,-86 36,-113 24,-27 58,-41 100,-41 42,0 76,14 100,41 24,27 36,65 36,113 z m -136,125 c 34,0 61,-11 81,-34 19,-22 29,-52 29,-91 0,-40 -10,-70 -29,-92 -20,-22 -47,-34 -81,-34 -34,0 -61,12 -81,34 -19,22 -29,52 -29,92 0,39 10,69 29,91 20,23 47,34 81,34 z"
         class="fil2"
         id="path82" /><polygon
         style="fill:#ffffff;fill-rule:nonzero"
         points="1019,3175 1020,2909 910,3175 881,3175 768,2909 771,3175 745,3175 745,2884 786,2884 896,3148 1007,2884 1045,2884 1045,3175 "
         class="fil2"
         id="polygon84" /><path
         style="fill:#ffffff;fill-rule:nonzero"
         inkscape:connector-curvature="0"
         d="m 1106,2884 27,0 0,179 c 0,31 7,55 21,70 13,14 35,22 65,22 30,0 52,-8 66,-23 14,-14 21,-38 21,-69 l 0,-179 26,0 0,186 c 0,37 -9,65 -29,84 -19,19 -47,29 -84,29 -37,0 -65,-10 -84,-29 -19,-19 -29,-48 -29,-85 l 0,-185 z"
         class="fil2"
         id="path86" /><polygon
         style="fill:#ffffff;fill-rule:nonzero"
         points="1598,3175 1419,2914 1419,3175 1394,3175 1394,2884 1427,2884 1608,3145 1608,2884 1633,2884 1633,3175 "
         class="fil2"
         id="polygon88" /><polygon
         style="fill:#ffffff;fill-rule:nonzero"
         points="1722,3175 1696,3175 1696,2884 1722,2884 "
         class="fil2"
         id="polygon90" /><polygon
         style="fill:#ffffff;fill-rule:nonzero"
         points="1881,3175 1855,3175 1855,2910 1755,2910 1755,2884 1981,2884 1981,2910 1881,2910 "
         class="fil2"
         id="polygon92" /><path
         style="fill:#ffffff;fill-rule:nonzero"
         inkscape:connector-curvature="0"
         d="m 2031,3057 119,0 -59,-149 -60,149 z m -74,118 119,-291 30,0 118,291 -26,0 -36,-90 -142,0 -37,90 -26,0 z"
         class="fil2"
         id="path94" /><path
         style="fill:#ffffff;fill-rule:nonzero"
         inkscape:connector-curvature="0"
         d="m 2248,3079 27,0 0,2 c 0,22 7,40 22,53 15,14 35,20 60,20 24,0 44,-5 58,-16 15,-11 22,-25 22,-44 0,-14 -4,-24 -12,-31 -9,-7 -26,-14 -52,-19 l -56,-11 c -20,-4 -36,-12 -46,-24 -10,-12 -15,-28 -15,-49 0,-25 9,-46 27,-61 17,-15 41,-23 72,-23 31,0 55,8 73,24 18,16 28,38 29,66 l -26,0 c -2,-21 -9,-36 -22,-47 -13,-11 -31,-16 -54,-16 -22,0 -40,5 -53,15 -13,10 -20,24 -20,41 0,14 5,24 14,31 9,8 26,14 51,19 l 49,9 c 24,5 41,13 52,25 11,12 16,29 16,50 0,28 -9,50 -27,66 -19,16 -45,24 -78,24 -34,0 -61,-9 -81,-27 -20,-17 -30,-42 -30,-72 l 0,-5 z"
         class="fil2"
         id="path96" /><path
         style="fill:#ffffff;fill-rule:nonzero"
         inkscape:connector-curvature="0"
         d="m 2853,3122 c -9,20 -22,35 -39,45 -17,11 -38,16 -62,16 -40,0 -72,-14 -96,-42 -24,-27 -36,-65 -36,-111 0,-48 12,-86 36,-113 24,-27 58,-41 100,-41 33,0 60,9 81,28 21,18 33,42 35,73 l -27,0 c -4,-24 -14,-42 -29,-54 -15,-12 -36,-18 -61,-18 -34,0 -60,11 -80,33 -19,22 -29,53 -29,92 0,38 10,68 29,91 19,22 45,34 78,34 27,0 50,-9 69,-27 19,-18 28,-39 28,-64 l 0,-14 -81,0 0,-26 108,0 0,151 -21,0 -3,-53 z"
         class="fil2"
         id="path98" /><polygon
         style="fill:#ffffff;fill-rule:nonzero"
         points="3136,3175 2956,2914 2956,3175 2931,3175 2931,2884 2964,2884 3145,3145 3145,2884 3170,2884 3170,3175 "
         class="fil2"
         id="polygon100" /><path
         style="fill:#ffffff;fill-rule:nonzero"
         inkscape:connector-curvature="0"
         d="m 3232,2884 26,0 0,179 c 0,31 7,55 21,70 14,14 36,22 66,22 30,0 52,-8 66,-23 14,-14 21,-38 21,-69 l 0,-179 26,0 0,186 c 0,37 -10,65 -29,84 -20,19 -48,29 -84,29 -37,0 -65,-10 -84,-29 -19,-19 -29,-48 -29,-85 l 0,-185 z"
         class="fil2"
         id="path102" /><polygon
         style="fill:#ffffff;fill-rule:nonzero"
         points="3606,2876 3505,3213 3485,3213 3587,2876 "
         class="fil2"
         id="polygon104" /><polygon
         style="fill:#ffffff;fill-rule:nonzero"
         points="3619,2884 3645,2884 3645,3148 3808,3148 3808,3175 3619,3175 "
         class="fil2"
         id="polygon106" /><polygon
         style="fill:#ffffff;fill-rule:nonzero"
         points="3876,3175 3850,3175 3850,2884 3876,2884 "
         class="fil2"
         id="polygon108" /><polygon
         style="fill:#ffffff;fill-rule:nonzero"
         points="4144,3175 3964,2914 3964,3175 3939,3175 3939,2884 3972,2884 4153,3145 4153,2884 4178,2884 4178,3175 "
         class="fil2"
         id="polygon110" /><path
         style="fill:#ffffff;fill-rule:nonzero"
         inkscape:connector-curvature="0"
         d="m 4240,2884 26,0 0,179 c 0,31 7,55 21,70 14,14 36,22 66,22 29,0 51,-8 65,-23 14,-14 21,-38 21,-69 l 0,-179 27,0 0,186 c 0,37 -10,65 -30,84 -19,19 -47,29 -83,29 -37,0 -65,-10 -84,-29 -20,-19 -29,-48 -29,-85 l 0,-185 z"
         class="fil2"
         id="path112" /><polygon
         style="fill:#ffffff;fill-rule:nonzero"
         points="4637,3025 4743,3175 4709,3175 4621,3045 4533,3175 4499,3175 4605,3026 4507,2884 4540,2884 4623,3006 4706,2884 4738,2884 "
         class="fil2"
         id="polygon114" /><polygon
         style="fill:#ffffff;fill-rule:nonzero"
         points="5167,3175 5168,2909 5058,3175 5028,3175 4916,2909 4918,3175 4893,3175 4893,2884 4934,2884 5043,3148 5154,2884 5192,2884 5192,3175 "
         class="fil2"
         id="polygon116" /><path
         style="fill:#ffffff;fill-rule:nonzero"
         inkscape:connector-curvature="0"
         d="m 5301,3057 119,0 -60,-149 -59,149 z m -75,118 120,-291 30,0 118,291 -26,0 -37,-90 -142,0 -36,90 -27,0 z"
         class="fil2"
         id="path118" /><polygon
         style="fill:#ffffff;fill-rule:nonzero"
         points="5527,2884 5553,2884 5553,3148 5716,3148 5716,3175 5527,3175 "
         class="fil2"
         id="polygon120" /><path
         style="fill:#ffffff;fill-rule:nonzero"
         inkscape:connector-curvature="0"
         d="m 5804,3057 119,0 -60,-149 -59,149 z m -75,118 120,-291 30,0 118,291 -26,0 -37,-90 -142,0 -36,90 -27,0 z"
         class="fil2"
         id="path122" /><polygon
         style="fill:#ffffff;fill-rule:nonzero"
         points="6235,3175 6056,2914 6056,3175 6030,3175 6030,2884 6063,2884 6245,3145 6245,2884 6270,2884 6270,3175 "
         class="fil2"
         id="polygon124" /><path
         style="fill:#ffffff;fill-rule:nonzero"
         inkscape:connector-curvature="0"
         d="m 6552,3122 c -9,20 -22,35 -40,45 -17,11 -37,16 -61,16 -40,0 -72,-14 -96,-42 -24,-27 -36,-65 -36,-111 0,-48 12,-86 36,-113 24,-27 57,-41 100,-41 32,0 59,9 80,28 22,18 33,42 36,73 l -27,0 c -4,-24 -14,-42 -29,-54 -16,-12 -36,-18 -62,-18 -33,0 -60,11 -79,33 -19,22 -29,53 -29,92 0,38 9,68 29,91 19,22 45,34 77,34 28,0 51,-9 70,-27 19,-18 28,-39 28,-64 l 0,-14 -81,0 0,-26 107,0 0,151 -20,0 -3,-53 z"
         class="fil2"
         id="path126" /><g
         style="fill:#ffffff"
         id="g128"><path
           style="fill:#ffffff"
           inkscape:connector-curvature="0"
           id="path130"
           d="m 4504,1021 0,1376 0,85 48,0 c 52,3 50,18 50,95 l 86,6 c 27,6 32,33 30,62 -2,29 -8,24 30,24 139,-2 116,2 116,125 l 34,0 0,-1359 c 10,12 136,390 146,421 l 319,938 343,0 c 11,-20 100,-294 117,-338 44,-117 88,-265 131,-382 l 131,-382 c 10,-30 20,-55 30,-86 l 56,-164 c 3,-7 1,-3 4,-7 l 0,1359 397,0 0,-1773 c -86,2 -172,-9 -255,-19 -40,-5 -85,-9 -122,5 -32,13 -39,31 -51,51 -36,59 -67,147 -97,212 l -250,569 c -27,63 -54,126 -82,189 -28,60 -59,129 -83,189 l -195,0 c -52,-125 -110,-255 -166,-380 -57,-126 -109,-253 -166,-378 -56,-126 -108,-254 -165,-379 -36,-80 -81,-91 -184,-78 -86,10 -163,18 -252,19 z"
           class="fil3" /><path
           style="fill:#ffffff"
           inkscape:connector-curvature="0"
           id="path132"
           d="m 737,2546 c -8,-8 -22,-24 -26,-34 23,-14 89,-7 42,-97 -56,-107 -212,-141 -272,-237 -49,-79 -33,-192 -1,-276 36,-93 67,-138 135,-200 -3,49 -62,155 -81,199 -25,58 -59,168 -7,221 12,-20 15,-69 20,-96 42,-198 187,-315 211,-583 93,2 106,121 242,75 40,-14 70,-38 112,-55 45,-17 74,-37 100,-65 l 7,11 c 1,1 3,8 3,10 2,9 4,15 7,24 63,216 115,264 196,442 13,27 24,53 34,82 11,33 15,58 23,93 l 32,3 c 16,-94 10,-151 -30,-226 -30,-56 -95,-112 -113,-157 82,19 118,88 156,151 58,95 55,125 56,250 31,29 132,57 132,128 l -44,6 c -7,-8 -10,-17 -20,-29 -24,-26 -56,-42 -93,-53 -122,-39 -113,17 -135,40 l -10,-10 c -7,-7 -2,-4 -10,-8 -20,17 -35,26 -49,50 -40,73 -27,166 -46,253 -21,99 -94,235 -25,313 56,63 149,65 226,37 47,-17 3,-17 84,-17 133,0 265,0 398,0 -3,-10 -10,-17 -16,-25 l -57,-76 c -11,-14 -69,-86 -70,-103 14,-3 36,-20 45,-30 57,-58 -21,-123 -42,-150 -47,-62 -25,-173 -115,-194 l 17,-149 c 0,-20 3,-20 1,-35 -6,-55 -2,-48 -22,-107 -15,-45 -43,-103 -67,-144 -36,-59 -64,-94 -108,-147 -68,-80 -166,-180 -183,-285 -4,-25 -3,-56 -8,-77 20,-14 54,-54 75,-74 4,-4 6,-5 9,-8 l 11,-10 c 48,-43 116,-119 152,-150 1,0 2,-1 2,-1 31,-26 102,-100 132,-130 l 211,-204 c 7,-7 13,-13 19,-21 l -489,0 c -28,0 -29,11 -64,45 -5,5 -8,8 -13,13 l -12,13 c 0,0 -1,1 -1,2 l -54,55 c -14,15 -41,45 -56,55 -27,-39 -78,-69 -125,-82 -50,-15 -126,-23 -188,-13 -116,16 -203,62 -242,175 -18,52 -23,117 -23,185 0,22 4,28 4,48 l -1,159 c -13,122 -29,144 -99,214 -14,14 -38,42 -53,52 l 0,-921 -374,0 0,1634 c -35,8 -73,30 -83,69 -11,44 3,82 2,142 -1,39 -22,103 -15,133 9,35 53,57 96,57 l 0,85 346,1 c 61,8 132,35 210,-26 10,-7 8,-5 15,-15 33,-45 12,5 27,-52 11,-41 -4,-81 -24,-115 -6,-10 -16,-32 -24,-38 z M 973,1197 c 11,6 68,25 82,23 4,-143 73,-98 74,-43 1,37 -17,48 -25,72 18,7 53,26 72,26 76,-74 48,-198 -29,-242 -78,-44 -182,11 -174,164 z m -155,65 8,-8 c -13,-36 -45,-70 -10,-108 36,4 19,43 44,73 l 60,-24 c 3,-80 -57,-198 -144,-143 -30,19 -48,63 -46,115 2,57 23,84 49,111 l 39,-16 z"
           class="fil3" /><path
           style="fill:#ffffff"
           inkscape:connector-curvature="0"
           id="path134"
           d="m 3526,1626 c -27,0 -56,7 -79,9 -26,3 -55,6 -77,11 -7,27 -11,54 -16,83 l -31,166 c -5,24 -16,59 -11,81 64,0 147,73 200,74 4,50 55,77 55,89 l -4,30 c -34,0 -78,7 -109,14 0,45 13,52 -37,54 -35,1 -24,7 -24,78 -10,1 -26,3 -39,5 -49,5 -35,1 -35,87 -64,0 -298,0 -333,17 0,15 0,29 0,44 0,55 -7,34 -58,38 -44,3 -38,7 -31,95 l -88,3 c -15,1 -12,3 -27,3 -6,27 -3,58 -3,85 -43,0 -110,-1 -146,7 -2,14 -4,8 -4,21 0,14 2,5 2,16 0,11 -11,52 8,52 l 1012,0 c 12,0 13,-14 17,-25 10,-29 21,-63 34,-91 -58,-14 -69,-102 -29,-142 52,-53 148,-18 148,50 0,47 -10,71 -51,92 2,17 15,42 20,58 6,17 20,42 21,58 l 1029,0 0,-89 c -19,-4 -118,-7 -146,-7 -6,-26 -1,-58 -7,-85 -23,0 -31,-3 -54,-3 -20,0 -41,0 -61,0 2,-28 14,-66 0,-95 l -85,-3 c 0,-18 -4,-29 -3,-51 0,-41 3,-38 -72,-38 -21,0 -28,-3 -51,-3 l -105,-4 c -18,-1 -37,1 -54,0 -16,0 -36,-5 -51,-6 l 0,-82 c -24,0 -56,-2 -75,-7 l 0,-74 c -16,-1 -42,-6 -58,-7 0,-23 -3,-32 -3,-51 l -96,-13 c -18,-3 -23,-5 -23,-21 0,-14 38,-26 55,-54 23,-40 3,-35 50,-58 l 110,-54 c 60,-27 64,48 11,-216 -31,-153 7,-115 -118,-134 -55,-8 -54,-11 -54,-69 1,-63 -7,-117 -6,-180 0,-26 -4,-37 -4,-61 0,-45 -3,-78 -3,-122 0,-24 -4,-33 -4,-58 l -6,-241 c 0,-26 -4,-36 -4,-61 0,-58 -5,-123 -7,-180 0,-21 1,-44 0,-65 -1,-19 -2,-35 -3,-58 -1,-52 -16,-107 -40,-150 -5,-10 -18,-29 -25,-36 -10,-10 -28,-17 -44,-21 0,-17 -3,-17 -3,-34 -2,-54 -6,-108 -30,-157 -9,-19 -26,-28 -28,-50 -53,35 -72,129 -71,200 0,24 4,33 -11,44 -36,25 -27,7 -56,56 -38,64 -31,114 -40,177 -5,33 1,72 -4,105 l -18,532 c 0,22 -4,29 -4,51 0,18 1,37 0,55 l -4,103 c -6,34 1,73 -4,106 l -5,107 z"
           class="fil4" /><path
           style="fill:#ffffff"
           inkscape:connector-curvature="0"
           id="path136"
           d="m 1603,1082 0,557 84,124 c 9,17 17,29 25,46 64,127 78,184 62,317 -3,23 -8,46 -8,70 50,33 55,36 73,108 19,76 18,66 62,118 48,56 59,136 -16,175 10,19 22,33 35,50 7,9 11,16 17,24 l 56,74 c 6,9 10,14 17,24 10,14 12,22 21,22 l 574,0 c 0,-90 -13,-121 58,-122 l 72,0 c 15,0 16,2 19,-8 9,-25 -14,-61 21,-77 10,-4 74,-7 92,-7 0,-66 -7,-96 61,-95 40,0 36,3 31,-35 -1,-13 2,-15 3,-26 l -958,0 0,-1733 c -12,3 -18,12 -26,21 -9,9 -16,16 -26,26 -8,8 -14,15 -24,23 l -276,270 c -9,10 -49,43 -49,54 z"
           class="fil3" /><path
           style="fill:#ffffff"
           inkscape:connector-curvature="0"
           id="path138"
           d="m 4464,1060 c 93,-2 172,-10 262,-23 108,-14 154,-1 192,90 59,142 114,286 173,429 58,142 113,286 172,429 59,142 120,289 173,431 l 204,0 c 24,-69 57,-146 86,-214 29,-72 57,-143 86,-215 l 260,-645 c 31,-74 64,-174 101,-241 12,-22 20,-43 54,-57 37,-16 84,-12 126,-6 87,12 177,23 266,22 144,-5 276,-27 381,-141 29,-32 52,-67 66,-113 42,-139 17,-320 -85,-418 -27,-27 -69,-57 -117,-57 0,1 2,0 2,1 l 15,7 c 25,10 31,13 53,31 67,55 95,148 103,247 2,28 -8,84 -13,104 -20,75 -63,128 -128,158 -13,7 -28,13 -40,18 -49,19 -124,30 -194,23 -239,-21 -475,-196 -638,27 l -24,35 -66,167 c -23,57 -44,111 -66,167 l -66,167 c -12,26 -21,55 -32,81 l -132,334 c -12,30 -22,54 -33,84 l -57,145 c -6,14 -2,11 -12,19 l -31,-81 c -11,-30 -22,-55 -33,-84 -10,-28 -21,-54 -33,-84 l -195,-496 c -8,-15 -11,-23 -17,-40 -28,-79 -116,-281 -138,-354 -6,-20 -20,-38 -32,-54 -193,-286 -524,56 -831,-55 -52,-19 -98,-44 -133,-90 -70,-94 -62,-276 -4,-372 7,-12 15,-22 23,-33 24,-31 46,-48 81,-63 l 20,-9 c -86,0 -156,88 -188,166 -36,86 -44,213 -12,313 42,133 173,207 294,235 71,17 97,11 157,15 z"
           class="fil5" /><path
           style="fill:#ffffff"
           inkscape:connector-curvature="0"
           id="path140"
           d="m 826,1258 -8,7 c -20,19 -43,35 -61,54 -51,52 10,66 76,119 20,17 42,35 73,45 71,23 129,-17 180,-43 26,-12 54,-25 78,-40 27,-16 32,-25 44,-45 9,-14 0,-1 16,-8 -3,-9 -40,-52 -77,-70 -35,-16 -71,-24 -105,-42 -141,-72 -177,9 -216,23 z m 576,936 c -59,29 -49,177 -63,251 -13,74 -68,188 -52,262 22,111 170,111 260,48 27,-18 67,-65 131,-110 169,-118 272,-77 151,-219 -34,-40 -30,-57 -46,-113 -43,-145 -152,-41 -189,-24 -37,16 -93,26 -132,5 -36,-19 -43,-60 -60,-100 z m -1016,-1 c -89,24 -34,82 -175,133 -36,13 -80,28 -81,71 -1,52 19,81 6,143 -33,157 -5,132 135,146 133,14 143,37 242,67 91,28 185,39 232,-32 51,-77 -37,-168 -71,-207 -71,-81 -69,-83 -128,-181 -31,-52 -81,-161 -160,-140 z"
           class="fil5" /><path
           style="fill:#ffffff"
           inkscape:connector-curvature="0"
           id="path142"
           d="m 2676,2388 282,0 0,-271 c 0,-8 -3,-11 -11,-11 l -271,0 0,282 z m -317,-271 0,271 282,0 0,-282 -271,0 c -8,0 -11,3 -11,11 z m -317,271 282,0 0,-271 c 0,-8 -3,-11 -11,-11 l -271,0 0,282 z m 0,-317 282,0 0,-271 c 0,-8 -2,-11 -10,-11 l -272,0 0,282 z"
           class="fil5" /></g></g><g
       transform="translate(12696.102,-2967.2883)"
       style="fill:#ffffff"
       id="g144"><path
         style="fill:#ffffff;fill-rule:nonzero"
         inkscape:connector-curvature="0"
         id="path146"
         d="m 2487,3441 -48,-154 20,0 40,135 36,-135 23,0 39,135 38,-135 19,0 -47,154 -21,0 -39,-137 -38,137 -22,0 z m 222,0 -48,-154 19,0 40,135 37,-135 23,0 39,135 38,-135 19,0 -47,154 -21,0 -39,-137 -39,137 -21,0 z m 221,0 -48,-154 20,0 40,135 36,-135 24,0 38,135 38,-135 20,0 -47,154 -22,0 -39,-137 -38,137 -22,0 z m 184,0 0,-26 21,0 0,26 -21,0 z m 71,0 0,-210 18,0 0,128 79,-72 27,0 -63,57 73,97 -24,0 -63,-85 -29,26 0,59 -18,0 z m 153,0 0,-210 18,0 0,210 -18,0 z m 58,-186 0,-24 18,0 0,24 -18,0 z m 0,186 0,-154 18,0 0,154 -18,0 z m 57,0 0,-154 18,0 0,29 c 6,-11 14,-19 24,-24 10,-5 21,-8 33,-8 13,0 24,3 32,8 8,5 14,13 18,24 7,-11 15,-19 25,-24 10,-5 21,-8 33,-8 18,0 31,5 40,14 8,9 12,24 12,43 l 0,100 -18,0 0,-87 c 0,-19 -3,-33 -8,-40 -6,-8 -16,-12 -29,-12 -16,0 -29,5 -39,15 -10,9 -15,21 -15,36 l 0,88 -16,0 0,-87 c 0,-19 -3,-33 -9,-40 -6,-8 -15,-12 -29,-12 -16,0 -29,5 -39,15 -10,9 -15,21 -15,36 l 0,88 -18,0 z m 285,0 0,-26 21,0 0,26 -21,0 z m 81,-77 c 0,19 5,34 15,46 10,11 23,17 40,17 16,0 30,-6 39,-17 10,-12 15,-27 15,-46 0,-19 -5,-34 -15,-46 -9,-11 -23,-17 -39,-17 -17,0 -30,6 -40,17 -10,12 -15,27 -15,46 z m -18,0 c 0,-25 6,-44 20,-60 13,-15 31,-22 53,-22 21,0 39,7 53,22 13,16 20,35 20,60 0,24 -7,44 -20,60 -14,15 -32,22 -53,22 -22,0 -40,-7 -53,-22 -14,-16 -20,-36 -20,-60 z m 194,77 -18,0 0,-154 18,0 0,26 c 4,-10 9,-18 16,-23 8,-6 16,-8 25,-8 3,0 6,0 9,1 3,0 6,1 9,3 l 0,19 c -3,-1 -6,-1 -9,-2 -2,0 -5,-1 -7,-1 -11,0 -20,4 -27,10 -7,7 -13,16 -16,29 l 0,100 z m 64,0 0,-26 21,0 0,26 -21,0 z m 72,-186 0,-24 18,0 0,24 -18,0 z m 0,186 0,-154 18,0 0,154 -18,0 z m 175,-78 c 0,-18 -5,-33 -15,-45 -9,-11 -23,-16 -39,-16 -16,0 -29,5 -39,17 -10,11 -15,26 -15,44 0,19 5,34 15,45 10,11 23,17 39,17 17,0 30,-6 40,-17 9,-11 14,-26 14,-45 z m 18,-132 0,210 -18,0 0,-27 c -6,10 -14,18 -23,23 -9,5 -19,7 -31,7 -22,0 -39,-7 -52,-22 -14,-15 -20,-35 -20,-59 0,-24 6,-43 20,-58 13,-15 30,-22 52,-22 11,0 21,2 30,7 9,5 17,13 24,23 l 0,-82 18,0 z"
         class="fil2" /><g
         style="fill:#ffffff"
         id="g148"><path
           style="fill:#ffffff"
           inkscape:connector-curvature="0"
           id="path150"
           d="m 4370,3335 c 0,30 21,23 53,23 24,0 47,0 70,0 46,0 90,-2 138,-2 369,0 744,-9 1112,-9 278,0 559,-7 836,-7 l 0,-3 c -47,0 -94,0 -140,0 -49,0 -92,-2 -138,-2 -47,0 -94,0 -140,0 -49,0 -92,-2 -138,-2 -47,0 -94,0 -140,0 -49,0 -92,-2 -138,-2 -47,0 -93,0 -140,0 -49,0 -91,-3 -138,-3 -47,0 -93,0 -140,0 -49,0 -91,-2 -138,-2 -47,0 -93,0 -140,0 -48,0 -91,-2 -138,-2 -47,0 -93,0 -140,0 -48,0 -91,-2 -138,-2 l -210,0 c -7,0 -53,-10 -53,13 z"
           class="fil3" /><path
           style="fill:#ffffff"
           inkscape:connector-curvature="0"
           id="path152"
           d="m 185,3337 0,3 c 367,0 742,9 1111,9 299,0 603,7 904,7 24,0 42,2 68,2 23,0 47,0 70,0 33,0 55,7 55,-23 0,-10 -11,-15 -19,-16 -12,-1 -20,3 -34,3 l -210,0 c -47,0 -89,2 -138,2 -47,0 -93,0 -140,0 -47,0 -89,2 -138,2 -46,0 -93,0 -140,0 -47,0 -89,2 -138,2 -46,0 -93,0 -140,0 -46,0 -89,3 -138,3 -46,0 -93,0 -140,0 -46,0 -89,2 -138,2 -46,0 -93,0 -140,0 -46,0 -89,2 -137,2 -47,0 -94,0 -140,0 -47,0 -90,2 -138,2 -47,0 -94,0 -140,0 z"
           class="fil3" /></g></g></g></svg>