<?xml version="1.0" encoding="UTF-8"?>
<!DOCTYPE svg PUBLIC "-//W3C//DTD SVG 1.1//EN" "http://www.w3.org/Graphics/SVG/1.1/DTD/svg11.dtd">
<!-- Created with Inkscape (http://www.inkscape.org/) -->
<svg xmlns="http://www.w3.org/2000/svg" xml:space="preserve" width="6.99587in" height="3.12299in" version="1.1" style="shape-rendering:geometricPrecision; text-rendering:geometricPrecision; image-rendering:optimizeQuality; fill-rule:evenodd; clip-rule:evenodd"
viewBox="0 0 6996 3123"
 xmlns:xlink="http://www.w3.org/1999/xlink">
 <defs>
  <style type="text/css">
   <![CDATA[
    .fil1 {fill:#373435}
    .fil2 {fill:#1E87F7}
    .fil3 {fill:#F7941E}
    .fil0 {fill:#373435;fill-rule:nonzero}
   ]]>
  </style>
 </defs>
 <g id="Layer_x0020_1">
  <metadata id="CorelCorpID_0Corel-Layer"/>
  <g id="_698965640">
   <polygon class="fil0" points="104,3086 104,2794 130,2794 130,2954 290,2794 326,2794 204,2916 326,3086 293,3086 185,2935 130,2989 130,3086 "/>
   <path id="1" class="fil0" d="M607 2940c0,48 -12,85 -37,112 -24,28 -57,41 -99,41 -43,0 -76,-13 -100,-41 -25,-27 -37,-64 -37,-112 0,-48 12,-85 37,-113 24,-27 57,-41 100,-41 42,0 75,14 99,41 25,28 37,65 37,113zm-136 125c34,0 61,-11 80,-33 19,-22 29,-53 29,-92 0,-39 -10,-70 -29,-92 -19,-22 -46,-33 -80,-33 -35,0 -62,11 -81,33 -20,22 -29,53 -29,92 0,39 9,70 29,92 19,22 46,33 81,33z"/>
   <polygon id="2" class="fil0" points="656,3086 656,2794 697,2794 806,3059 917,2794 955,2794 955,3086 930,3086 931,2819 821,3086 791,3086 678,2819 681,3086 "/>
   <path id="3" class="fil0" d="M1017 2794l26 0 0 179c0,32 7,55 21,70 14,15 36,22 66,22 30,0 52,-7 66,-22 14,-15 21,-38 21,-70l0 -179 26 0 0 187c0,36 -10,64 -29,83 -20,20 -48,29 -84,29 -37,0 -65,-9 -84,-29 -19,-19 -29,-47 -29,-85l0 -185z"/>
   <polygon id="4" class="fil0" points="1304,3086 1304,2794 1337,2794 1518,3056 1518,2794 1544,2794 1544,3086 1509,3086 1329,2824 1329,3086 "/>
   <polygon id="5" class="fil0" points="1607,3086 1607,2794 1632,2794 1632,3086 "/>
   <polygon id="6" class="fil0" points="1766,3086 1766,2821 1666,2821 1666,2794 1892,2794 1892,2821 1792,2821 1792,3086 "/>
   <path id="7" class="fil0" d="M1942 2967l119 0 -59 -149 -60 149zm-75 119l120 -292 30 0 118 292 -26 0 -37 -90 -141 0 -37 90 -27 0z"/>
   <path id="8" class="fil0" d="M2159 2990l26 0 0 1c0,22 8,40 22,53 15,14 35,21 60,21 25,0 44,-6 59,-17 14,-10 22,-25 22,-43 0,-14 -5,-25 -13,-32 -8,-7 -26,-13 -52,-19l-55 -11c-21,-4 -36,-12 -46,-24 -11,-12 -16,-28 -16,-48 0,-26 9,-46 27,-62 18,-15 42,-23 72,-23 31,0 56,8 74,24 18,16 27,38 28,66l-26 0c-1,-20 -9,-36 -21,-47 -13,-11 -31,-16 -54,-16 -23,0 -40,5 -53,15 -14,10 -20,24 -20,41 0,14 5,24 14,32 9,7 26,13 51,18l49 10c23,4 41,13 52,25 11,11 16,28 16,50 0,28 -9,50 -28,66 -18,15 -44,23 -77,23 -35,0 -62,-9 -82,-26 -19,-18 -29,-42 -29,-73l0 -4z"/>
   <path id="9" class="fil0" d="M2764 3033c-9,19 -22,34 -40,45 -17,10 -37,15 -61,15 -40,0 -72,-14 -96,-41 -24,-28 -36,-65 -36,-112 0,-48 12,-85 36,-113 24,-27 57,-41 100,-41 32,0 59,10 80,28 21,18 33,43 36,73l-27 0c-4,-23 -14,-41 -30,-54 -15,-12 -35,-18 -61,-18 -33,0 -60,11 -79,33 -20,23 -29,53 -29,92 0,38 9,69 29,91 19,23 45,34 77,34 28,0 51,-9 70,-27 19,-17 28,-39 28,-63l0 -15 -82 0 0 -25 108 0 0 151 -21 0 -2 -53z"/>
   <polygon id="10" class="fil0" points="2841,3086 2841,2794 2874,2794 3056,3056 3056,2794 3081,2794 3081,3086 3046,3086 2867,2824 2867,3086 "/>
   <path id="11" class="fil0" d="M3142 2794l27 0 0 179c0,32 7,55 21,70 13,15 35,22 65,22 30,0 52,-7 66,-22 14,-15 21,-38 21,-70l0 -179 26 0 0 187c0,36 -9,64 -29,83 -19,20 -47,29 -84,29 -37,0 -65,-9 -84,-29 -19,-19 -29,-47 -29,-85l0 -185z"/>
   <polygon id="12" class="fil0" points="3416,3123 3396,3123 3497,2786 3517,2786 "/>
   <polygon id="13" class="fil0" points="3529,3086 3529,2794 3555,2794 3555,3058 3718,3058 3718,3086 "/>
   <polygon id="14" class="fil0" points="3761,3086 3761,2794 3786,2794 3786,3086 "/>
   <polygon id="15" class="fil0" points="3849,3086 3849,2794 3882,2794 4064,3056 4064,2794 4089,2794 4089,3086 4054,3086 3874,2824 3874,3086 "/>
   <path id="16" class="fil0" d="M4150 2794l27 0 0 179c0,32 6,55 20,70 14,15 36,22 66,22 30,0 52,-7 66,-22 14,-15 21,-38 21,-70l0 -179 26 0 0 187c0,36 -10,64 -29,83 -19,20 -47,29 -84,29 -37,0 -65,-9 -84,-29 -19,-19 -29,-47 -29,-85l0 -185z"/>
   <polygon id="17" class="fil0" points="4409,3086 4516,2936 4417,2794 4450,2794 4533,2916 4616,2794 4649,2794 4548,2935 4654,3086 4620,3086 4532,2956 4443,3086 "/>
   <polygon id="18" class="fil0" points="4803,3086 4803,2794 4845,2794 4954,3059 5065,2794 5103,2794 5103,3086 5078,3086 5079,2819 4969,3086 4939,3086 4826,2819 4829,3086 "/>
   <path id="19" class="fil0" d="M5211 2967l119 0 -59 -149 -60 149zm-74 119l119 -292 30 0 118 292 -26 0 -36 -90 -142 0 -37 90 -26 0z"/>
   <polygon id="20" class="fil0" points="5438,3086 5438,2794 5464,2794 5464,3058 5627,3058 5627,3086 "/>
   <path id="21" class="fil0" d="M5714 2967l119 0 -59 -149 -60 149zm-74 119l119 -292 30 0 118 292 -26 0 -36 -90 -142 0 -37 90 -26 0z"/>
   <polygon id="22" class="fil0" points="5941,3086 5941,2794 5974,2794 6155,3056 6155,2794 6180,2794 6180,3086 6146,3086 5966,2824 5966,3086 "/>
   <path id="23" class="fil0" d="M6462 3033c-9,19 -22,34 -39,45 -17,10 -38,15 -61,15 -41,0 -73,-14 -97,-41 -24,-28 -36,-65 -36,-112 0,-48 12,-85 36,-113 25,-27 58,-41 100,-41 33,0 60,10 81,28 21,18 33,43 36,73l-28 0c-4,-23 -14,-41 -29,-54 -15,-12 -36,-18 -61,-18 -34,0 -60,11 -80,33 -19,23 -29,53 -29,92 0,38 10,69 29,91 20,23 45,34 78,34 27,0 50,-9 69,-27 19,-17 29,-39 29,-63l0 -15 -82 0 0 -25 108 0 0 151 -21 0 -3 -53z"/>
   <g>
    <path class="fil1" d="M4414 932l0 1375 0 86 49 0c52,3 50,17 50,94l86 6c27,7 31,33 29,62 -2,29 -8,24 31,24 139,-2 115,2 115,126l34 0 0 -1359c10,11 136,389 147,420l319 939 343 0c10,-20 100,-294 117,-339 44,-116 88,-265 131,-382l131 -381c10,-31 20,-56 30,-86l56 -165c3,-7 1,-3 3,-6l0 1359 398 0 0 -1774c-86,2 -172,-8 -256,-19 -40,-5 -85,-9 -121,6 -32,12 -40,30 -52,50 -35,59 -67,147 -96,213l-250 568c-28,64 -55,126 -83,189 -27,61 -59,129 -82,189l-196 0c-51,-125 -109,-254 -166,-380 -56,-126 -109,-253 -165,-378 -56,-126 -109,-253 -165,-378 -37,-81 -82,-92 -185,-79 -86,11 -163,18 -252,20z"/>
    <path class="fil1" d="M648 2456c-8,-8 -22,-24 -27,-33 24,-14 89,-7 42,-97 -55,-108 -211,-141 -272,-238 -49,-79 -33,-191 0,-276 36,-92 66,-138 134,-200 -2,49 -61,155 -81,199 -25,59 -59,168 -7,221 12,-20 15,-69 21,-95 42,-199 187,-316 210,-584 93,2 107,121 242,75 41,-14 70,-38 112,-54 45,-18 74,-38 100,-66l8 11c0,1 2,9 3,11 2,8 4,15 6,23 64,216 115,264 197,443 12,26 24,52 34,81 11,33 14,58 23,93l31 3c16,-93 11,-151 -29,-226 -31,-56 -95,-112 -113,-157 81,19 118,89 156,151 57,95 55,125 55,250 32,29 133,57 132,128l-43 7c-8,-8 -10,-18 -21,-29 -24,-26 -56,-42 -92,-54 -122,-38 -113,17 -135,41l-10 -11c-7,-7 -2,-3 -10,-8 -21,17 -36,26 -49,51 -40,73 -27,165 -46,253 -21,98 -95,235 -25,313 56,62 148,64 225,37 48,-17 3,-18 85,-18 132,0 265,0 397,0 -2,-9 -10,-16 -16,-24l-56 -77c-11,-14 -69,-86 -71,-103 15,-3 36,-19 46,-29 56,-59 -22,-124 -42,-151 -48,-62 -26,-172 -116,-193l17 -150c1,-20 3,-19 1,-35 -5,-54 -1,-48 -21,-107 -15,-44 -44,-103 -68,-143 -35,-60 -63,-95 -108,-147 -67,-81 -166,-181 -183,-286 -4,-25 -3,-55 -8,-77 21,-14 55,-54 76,-74 4,-4 5,-4 9,-8l10 -10c48,-43 117,-119 153,-149 0,-1 1,-2 2,-2 31,-26 101,-100 131,-130l211 -204c8,-7 14,-12 20,-21l-490 0c-28,0 -29,11 -63,45 -6,5 -9,8 -14,14l-11 12c-1,1 -1,1 -2,2l-53 55c-15,15 -42,46 -57,56 -26,-40 -77,-69 -124,-83 -51,-15 -127,-22 -189,-13 -115,17 -202,62 -242,176 -18,51 -22,117 -22,185 0,21 3,27 3,47l0 159c-14,123 -30,145 -99,214 -15,15 -39,42 -54,52l0 -921 -373 0 0 1634c-35,9 -74,30 -84,70 -11,43 3,81 2,141 0,40 -22,104 -14,134 8,34 52,56 96,56l0 85 345 1c61,8 132,35 211,-25 10,-8 8,-6 15,-16 32,-45 11,5 27,-51 10,-41 -5,-82 -24,-116 -6,-10 -16,-31 -24,-38zm236 -1349c11,6 68,25 82,24 4,-143 72,-98 73,-44 1,37 -16,48 -24,72 17,7 52,26 71,27 77,-75 48,-199 -29,-243 -78,-44 -181,11 -173,164zm-156 65l8 -7c-12,-36 -45,-71 -10,-109 36,4 20,44 44,73l60 -24c3,-79 -57,-198 -144,-142 -30,19 -48,62 -46,114 2,58 23,84 50,111l38 -16z"/>
    <path class="fil2" d="M3436 1536c-26,0 -55,7 -78,10 -26,2 -55,5 -78,10 -6,27 -10,54 -16,83l-30 167c-5,23 -16,59 -12,80 64,0 148,73 201,75 4,50 54,76 54,88l-3 30c-35,0 -79,7 -109,14 0,45 13,52 -38,54 -34,2 -23,8 -23,79 -10,0 -27,2 -40,4 -48,6 -35,1 -35,87 -64,0 -297,0 -333,17 0,15 0,30 0,45 1,55 -6,33 -57,37 -44,3 -38,8 -31,95l-88 3c-16,1 -13,3 -28,4 -6,26 -3,57 -3,85 -43,0 -110,-2 -146,7 -1,13 -3,7 -3,20 0,14 2,5 2,16 -1,12 -11,52 8,52l1012 0c12,0 13,-14 16,-24 11,-30 21,-63 35,-92 -59,-13 -70,-102 -30,-142 53,-52 149,-18 149,51 0,46 -11,70 -51,91 1,17 14,42 20,59 5,16 19,42 21,57l1029 0 0 -88c-20,-5 -118,-7 -146,-7 -7,-27 -1,-59 -7,-85 -24,0 -31,-4 -54,-4 -21,0 -41,0 -62,0 3,-28 14,-66 0,-95l-85 -3c0,-18 -3,-28 -3,-51 1,-41 3,-37 -71,-37 -22,0 -29,-4 -51,-4l-106 -3c-17,-1 -36,1 -54,0 -16,-1 -36,-6 -51,-7l0 -82c-24,0 -55,-2 -75,-6l0 -75c-15,-1 -42,-6 -57,-7 0,-23 -4,-31 -4,-51l-96 -12c-17,-4 -23,-6 -23,-22 0,-14 38,-26 55,-54 24,-40 3,-35 51,-58l109 -53c60,-28 64,48 11,-217 -31,-153 7,-115 -118,-133 -54,-8 -54,-12 -53,-69 0,-63 -7,-118 -7,-180 0,-26 -4,-37 -3,-61 0,-46 -4,-78 -4,-123 0,-24 -3,-33 -3,-58l-7 -241c0,-25 -4,-36 -3,-61 0,-57 -6,-123 -7,-180 -1,-21 1,-44 0,-65 -1,-18 -3,-34 -3,-57 -2,-53 -17,-108 -40,-151 -6,-10 -19,-28 -26,-36 -10,-10 -28,-17 -43,-21 0,-16 -3,-16 -4,-33 -1,-55 -5,-108 -29,-158 -9,-19 -27,-28 -28,-50 -53,36 -73,129 -72,201 1,23 4,32 -11,43 -36,26 -26,8 -55,57 -38,64 -31,113 -41,176 -5,33 2,72 -3,106l-19 532c0,21 -3,28 -3,50 0,19 0,37 0,55l-5 104c-5,33 2,72 -3,105l-6 107z"/>
    <path class="fil1" d="M1514 992l0 557 84 124c9,17 16,30 25,46 63,127 78,184 61,317 -3,24 -7,47 -7,71 49,33 55,35 73,107 19,76 18,66 62,118 48,56 59,136 -16,176 10,18 22,32 35,50 6,8 10,15 17,23l55 74c7,10 10,15 17,24 11,14 12,22 22,22l574 0c0,-90 -14,-120 57,-122l72 0c16,0 16,3 20,-7 9,-25 -14,-62 21,-78 10,-4 73,-7 91,-7 0,-65 -6,-96 61,-95 41,1 36,3 32,-35 -2,-13 1,-15 2,-26l-957 0 0 -1733c-13,3 -18,13 -27,21 -9,10 -16,17 -25,26 -9,9 -15,15 -24,23l-277 271c-9,9 -48,42 -48,53z"/>
    <path class="fil3" d="M4374 970c93,-1 173,-10 263,-22 107,-15 154,-2 192,89 59,142 113,286 172,429 59,142 114,286 173,429 58,143 119,290 173,431l203 0c25,-68 58,-146 86,-214 30,-72 58,-143 86,-214l261 -645c30,-75 63,-175 100,-241 13,-23 21,-43 54,-58 38,-16 85,-12 127,-6 87,12 176,24 266,22 144,-5 275,-27 380,-141 29,-32 52,-66 66,-113 43,-139 17,-320 -84,-418 -27,-26 -69,-57 -118,-57 1,1 2,0 2,2l16 6c25,10 31,14 52,31 68,55 96,148 103,247 3,28 -8,84 -13,104 -19,75 -63,129 -127,159 -14,6 -28,13 -41,17 -48,19 -123,30 -194,24 -238,-21 -475,-197 -637,26l-25 36 -66 167c-23,56 -43,110 -66,167l-66 167c-11,25 -20,55 -32,80l-132 335c-11,29 -21,53 -32,83l-58 146c-5,14 -2,11 -11,18l-32 -81c-11,-30 -21,-55 -32,-84 -11,-27 -22,-54 -33,-84l-195 -496c-8,-15 -11,-23 -17,-40 -29,-79 -116,-281 -138,-354 -6,-20 -21,-37 -32,-54 -194,-285 -525,57 -831,-55 -53,-19 -99,-44 -133,-90 -70,-94 -63,-275 -4,-372 7,-12 14,-22 23,-33 24,-30 46,-47 80,-62l20 -10c-86,0 -155,88 -188,166 -35,86 -44,213 -12,314 43,133 173,206 294,235 72,17 98,10 157,14z"/>
    <path class="fil3" d="M736 1168l-8 7c-20,19 -42,35 -61,54 -51,52 10,66 76,120 21,16 43,35 74,45 71,23 128,-18 179,-43 26,-13 55,-26 79,-41 27,-16 31,-25 43,-44 10,-15 1,-2 16,-9 -3,-8 -40,-52 -77,-70 -34,-16 -70,-24 -104,-41 -141,-72 -178,8 -217,22zm577 936c-59,30 -50,177 -63,252 -14,73 -68,188 -53,261 23,111 170,111 261,49 26,-19 66,-65 131,-110 169,-118 271,-77 151,-220 -34,-40 -30,-56 -47,-113 -43,-145 -151,-41 -189,-24 -37,17 -92,26 -132,6 -36,-19 -42,-61 -59,-101zm-1017 -1c-89,24 -34,82 -174,133 -36,13 -80,28 -81,71 -2,52 19,81 6,143 -34,157 -6,132 135,147 133,13 142,36 242,67 90,27 185,38 232,-33 50,-77 -37,-168 -71,-206 -71,-82 -70,-83 -128,-182 -31,-52 -82,-161 -161,-140z"/>
    <path class="fil3" d="M2586 2299l282 0 0 -272c0,-8 -2,-10 -10,-10l-272 0 0 282zm-316 -272l0 272 282 0 0 -282 -272 0c-8,0 -10,2 -10,10zm-318 272l282 0 0 -272c0,-8 -2,-10 -10,-10l-272 0 0 282zm1 -317l281 0 0 -272c0,-8 -2,-10 -10,-10l-271 0 0 282z"/>
   </g>
  </g>
 </g>
</svg>
